<?xml version="1.0" encoding="UTF-8" standalone="no"?>
<!-- Created with Inkscape (http://www.inkscape.org/) -->

<svg
   width="239.32692mm"
   height="19.455307mm"
   viewBox="0 0 239.32692 19.455307"
   version="1.1"
   id="svg5112"
   inkscape:version="1.2.1 (9c6d41e410, 2022-07-14)"
   sodipodi:docname="Pestanha_tiktok.svg"
   xml:space="preserve"
   xmlns:inkscape="http://www.inkscape.org/namespaces/inkscape"
   xmlns:sodipodi="http://sodipodi.sourceforge.net/DTD/sodipodi-0.dtd"
   xmlns:xlink="http://www.w3.org/1999/xlink"
   xmlns="http://www.w3.org/2000/svg"
   xmlns:svg="http://www.w3.org/2000/svg"><sodipodi:namedview
     id="namedview5114"
     pagecolor="#ffffff"
     bordercolor="#000000"
     borderopacity="0.25"
     inkscape:showpageshadow="2"
     inkscape:pageopacity="0.0"
     inkscape:pagecheckerboard="0"
     inkscape:deskcolor="#d1d1d1"
     inkscape:document-units="mm"
     showgrid="false"
     inkscape:zoom="0.70199214"
     inkscape:cx="581.91535"
     inkscape:cy="45.584556"
     inkscape:window-width="1920"
     inkscape:window-height="986"
     inkscape:window-x="-11"
     inkscape:window-y="-11"
     inkscape:window-maximized="1"
     inkscape:current-layer="layer1" /><defs
     id="defs5109"><linearGradient
   inkscape:collect="always"
   id="linearGradient2642"><stop
     style="stop-color:#000000;stop-opacity:0.13765182;"
     offset="0"
     id="stop2638" /><stop
     style="stop-color:#000000;stop-opacity:0;"
     offset="1"
     id="stop2640" /></linearGradient><linearGradient
   inkscape:collect="always"
   xlink:href="#linearGradient2642"
   id="linearGradient2644"
   x1="-40.415447"
   y1="-7.5029697"
   x2="198.91147"
   y2="-7.5029697"
   gradientUnits="userSpaceOnUse" />
	
	
	
	

		
		
		
		
		
		
		
		
		
	</defs><g
     inkscape:label="Capa 1"
     inkscape:groupmode="layer"
     id="layer1"
     transform="translate(40.415447,17.230623)"><g
       id="g7796"><g
         id="g2697"><rect
           style="fill:url(#linearGradient2644);fill-opacity:1;stroke-width:0.641083;stroke-linecap:round"
           id="rect622"
           width="239.32692"
           height="19.455307"
           x="-40.415447"
           y="-17.230623" /><text
           xml:space="preserve"
           style="font-size:11.9503px;font-family:'Kristen ITC';-inkscape-font-specification:'Kristen ITC';fill:#ffffff;fill-opacity:1;stroke:none;stroke-width:2.83419;stroke-linecap:round"
           x="9.1297417"
           y="-2.5529876"
           id="text4821"
           transform="scale(0.95821786,1.043604)"><tspan
             sodipodi:role="line"
             id="tspan4819"
             style="font-style:normal;font-variant:normal;font-weight:normal;font-stretch:normal;font-family:Impact;-inkscape-font-specification:Impact;fill:#ffffff;stroke-width:2.83419"
             x="9.1297417"
             y="-2.5529876">CONTENIDO DE TIKTOK</tspan></text></g><g
         id="g7784"
         transform="matrix(0.38265105,0,0,0.38265105,172.22884,-134.63168)"><circle
           style="opacity:1;fill:#000000;fill-opacity:1;stroke:none;stroke-width:1.5248;stroke-linecap:round;stroke-dasharray:none;stroke-opacity:1"
           id="path7777"
           cx="-489.55319"
           cy="332.23199"
           r="17.549999" /><g
           id="g7531"
           transform="translate(-14.791364,-35.978993)"
           style="opacity:1"><path
             style="fill:#fe2b55;fill-opacity:1;stroke:none;stroke-width:0.204998;stroke-linecap:round"
             d="m -478.40873,380.16827 c -1.67378,-0.30416 -3.083,-1.15489 -4.13707,-2.49748 -1.72099,-2.19209 -2.06236,-5.22959 -0.86471,-7.69418 1.17412,-2.41616 3.53028,-3.82639 6.77587,-4.05556 l 0.37838,-0.0267 -0.01,1.87122 0.0253,2.201 -1.35278,-0.0529 c -1.26068,-0.0493 -2.50112,1.03596 -2.85769,2.3489 -0.1136,0.41832 -0.11276,1.19703 0.002,1.66495 0.24171,0.98719 0.87332,1.75686 1.8326,2.23318 0.83351,0.41387 1.73638,0.49342 2.58385,0.22768 0.95194,-0.29852 1.68639,-1.10006 2.0563,-2.24413 0.27678,-0.85608 0.25663,-0.20834 0.26906,-8.65173 l 0.0112,-7.59935 1.84717,0.01 1.84717,0.01 0.0698,0.40991 c 0.34918,2.05048 1.30423,3.47249 2.84715,4.23931 0.54168,0.26921 1.39131,0.4981 2.10071,0.5659 l 0.28108,0.0269 v 1.7774 2.06008 h -0.59708 c -1.36228,0 -2.71957,-0.70592 -4.28791,-1.61977 l -0.32954,-0.19203 -0.0217,3.78308 c -0.0233,4.05402 -0.0277,4.15069 -0.23559,5.10275 -0.68947,3.15761 -2.87884,5.43363 -5.82958,6.06037 -0.56223,0.11943 -1.85205,0.14161 -2.40372,0.0413 z"
             id="path478-9-3"
             sodipodi:nodetypes="sssscccsscsssscccssscccsscsssss" /><path
             style="fill:#2df5ef;fill-opacity:1;stroke:none;stroke-width:0.204998;stroke-linecap:round"
             d="m -479.35802,379.25311 c -1.67378,-0.30416 -3.083,-1.15489 -4.13707,-2.49748 -1.72099,-2.19209 -2.06236,-5.22959 -0.86471,-7.69418 1.17412,-2.41616 3.53028,-3.82639 6.77587,-4.05556 l 0.37838,-0.0267 -0.01,1.87122 0.0253,2.201 -1.35278,-0.0529 c -1.26068,-0.0493 -2.50112,1.03596 -2.85769,2.3489 -0.1136,0.41832 -0.11276,1.19703 0.002,1.66495 0.24171,0.98719 0.87332,1.75686 1.8326,2.23318 0.83351,0.41387 1.73638,0.49342 2.58385,0.22768 0.95194,-0.29852 1.68639,-1.10006 2.0563,-2.24413 0.27678,-0.85608 0.25663,-0.20834 0.26906,-8.65173 l 0.0112,-7.59935 1.84717,0.01 1.84717,0.01 0.0698,0.40991 c 0.34918,2.05048 1.30423,3.47249 2.84715,4.23931 0.54168,0.26921 1.39131,0.4981 2.10071,0.5659 l 0.28108,0.0269 v 1.7774 2.06008 h -0.59708 c -1.36228,0 -2.71957,-0.70592 -4.28791,-1.61977 l -0.32954,-0.19203 -0.0217,3.78308 c -0.0233,4.05402 -0.0277,4.15069 -0.23559,5.10275 -0.68947,3.15761 -2.87884,5.43363 -5.82958,6.06037 -0.56223,0.11943 -1.85205,0.14161 -2.40372,0.0413 z"
             id="path478-9"
             sodipodi:nodetypes="sssscccsscsssscccssscccsscsssss" /><path
             style="fill:#ffffff;fill-opacity:1;stroke:none;stroke-width:0.669568;stroke-linecap:round"
             d="m -1658.0526,1498.5855 c -1.3148,-0.1505 -3.8527,-0.7875 -5.3541,-1.3439 -2.2595,-0.8373 -5.58,-2.7063 -6.7221,-3.7835 -1.0891,-1.0273 -2.8452,-3.6755 -3.9866,-6.0116 -1.8409,-3.768 -2.7665,-7.8744 -2.7613,-12.2513 0,-3.2003 0.4346,-5.8761 1.4006,-8.6972 2.8265,-8.2545 9.2846,-14.2175 18.2061,-16.8101 1.6954,-0.4927 4.2538,-1.033 5.4918,-1.1598 l 0.8366,-0.086 v 4.783 c 0,2.6307 0.037,5.222 0.083,5.7585 l 0.082,0.9754 -0.8064,-0.082 c -0.4436,-0.045 -2.0246,-0.091 -3.5135,-0.1023 -2.5295,-0.019 -2.7649,-6e-4 -3.5885,0.2738 -3.6552,1.218 -6.5287,4.0896 -7.854,7.849 l -0.4555,1.2921 0.01,2.5183 c 0.01,2.18 0.044,2.6505 0.2804,3.5039 0.7674,2.7735 2.3492,5.1061 4.6227,6.8172 0.5189,0.3906 0.9435,0.7568 0.9435,0.8137 0,0.057 0.3729,0.5063 0.8287,0.9985 3.4668,3.7445 8.9042,5.3333 13.606,3.9757 3.9001,-1.1262 6.6607,-4.1257 8.2264,-8.9384 0.3083,-0.9475 0.5566,-2.0186 0.6451,-2.7818 0.1021,-0.8809 0.1602,-9.5095 0.2,-29.7284 l 0.056,-28.4873 h 5.4637 5.4638 l 0.1339,0.5351 c 0.638,2.5491 1.8819,5.407 3.2462,7.4587 0.8406,1.2642 1.1684,1.6132 5.3282,5.673 3.0959,3.0214 5.4055,4.3572 9.241,5.3449 l 1.3877,0.3573 0.033,5.6766 0.033,5.6766 h -1.9465 c -4.4861,0 -8.1939,-1.3321 -15.6507,-5.6227 -1.1246,-0.647 -2.0644,-1.1764 -2.0884,-1.1764 -0.024,0 -0.081,6.0767 -0.1274,13.5039 -0.084,13.4892 -0.1625,16.269 -0.5204,18.3278 -1.4388,8.2746 -5.4808,15.2233 -11.4832,19.7408 -3.3588,2.528 -7.7073,4.4105 -11.6252,5.0328 -1.4378,0.2284 -5.9618,0.3367 -7.3628,0.1763 z"
             id="path6905"
             transform="matrix(0.26458333,0,0,0.26458333,-40.415447,-17.230623)" /></g></g></g></g></svg>
