<?xml version="1.0" encoding="UTF-8" standalone="no"?>
<!-- Created with Inkscape (http://www.inkscape.org/) -->

<svg
   width="216.59521mm"
   height="18.874464mm"
   viewBox="0 0 216.59521 18.874464"
   version="1.1"
   id="svg7459"
   inkscape:version="1.2.1 (9c6d41e410, 2022-07-14)"
   sodipodi:docname="Pestanha_youtube.svg"
   xmlns:inkscape="http://www.inkscape.org/namespaces/inkscape"
   xmlns:sodipodi="http://sodipodi.sourceforge.net/DTD/sodipodi-0.dtd"
   xmlns="http://www.w3.org/2000/svg"
   xmlns:svg="http://www.w3.org/2000/svg">
  <sodipodi:namedview
     id="namedview7461"
     pagecolor="#ffffff"
     bordercolor="#000000"
     borderopacity="0.25"
     inkscape:showpageshadow="2"
     inkscape:pageopacity="0.0"
     inkscape:pagecheckerboard="0"
     inkscape:deskcolor="#d1d1d1"
     inkscape:document-units="mm"
     showgrid="false"
     inkscape:zoom="0.70199214"
     inkscape:cx="422.3694"
     inkscape:cy="48.43359"
     inkscape:window-width="1920"
     inkscape:window-height="986"
     inkscape:window-x="-11"
     inkscape:window-y="-11"
     inkscape:window-maximized="1"
     inkscape:current-layer="layer1" />
  <defs
     id="defs7456" />
  <g
     inkscape:label="Capa 1"
     inkscape:groupmode="layer"
     id="layer1"
     transform="translate(6.595221,-15.0615)">
    <g
       id="g5085"
       transform="translate(-18.098903,58.556622)">
      <path
         style="fill:#ec2828;fill-opacity:1;stroke:none;stroke-width:0.092541;stroke-linecap:round"
         d="m 43.499637,-24.658473 c 0,-0.02084 -0.0096,-0.0283 -0.02138,-0.01654 -0.01176,0.01176 -0.04329,0.0034 -0.07002,-0.01898 -0.03787,-0.03143 -0.776278,-0.04231 -3.334022,-0.0491 -2.903078,-0.0077 -3.291827,-0.01454 -3.340674,-0.05876 -0.04685,-0.04241 -0.243019,-0.05301 -1.286278,-0.06961 -1.053771,-0.01679 -1.236289,-0.02679 -1.267718,-0.06951 -0.02455,-0.03338 -0.109357,-0.05454 -0.256044,-0.06388 -0.157575,-0.01005 -0.236504,-0.03114 -0.280324,-0.07495 -0.03641,-0.03641 -0.106854,-0.06099 -0.174792,-0.06099 -0.07045,0 -0.138581,-0.02479 -0.178838,-0.06503 -0.03577,-0.03577 -0.09836,-0.06503 -0.139098,-0.06503 -0.04075,0 -0.09912,-0.02928 -0.129747,-0.06504 -0.0306,-0.03577 -0.0907,-0.06503 -0.133501,-0.06503 -0.05047,0 -0.08379,-0.02284 -0.09482,-0.06503 -0.0094,-0.03577 -0.04031,-0.06503 -0.06883,-0.06503 -0.0285,0 -0.08108,-0.02928 -0.116848,-0.06503 -0.03577,-0.03577 -0.0943,-0.06504 -0.130065,-0.06504 -0.03782,0 -0.06504,-0.02167 -0.06504,-0.05181 0,-0.0285 -0.02928,-0.05947 -0.06503,-0.06883 -0.03577,-0.0094 -0.06503,-0.03724 -0.06503,-0.06199 0,-0.02474 -0.01244,-0.045 -0.02772,-0.045 -0.03816,0 -0.232434,-0.188658 -0.232434,-0.225704 0,-0.01654 -0.02928,-0.03934 -0.06503,-0.05068 -0.03577,-0.01137 -0.06504,-0.043 -0.06504,-0.07027 0,-0.02728 -0.02792,-0.05692 -0.06202,-0.06585 -0.03411,-0.0089 -0.06932,-0.04412 -0.07825,-0.07824 -0.0089,-0.03411 -0.03953,-0.06203 -0.06804,-0.06203 -0.02938,0 -0.05182,-0.02699 -0.05182,-0.06237 0,-0.09691 -0.03504,-0.165237 -0.08477,-0.165237 -0.02489,0 -0.04529,-0.0265 -0.04529,-0.0589 0,-0.03241 -0.02928,-0.09031 -0.06503,-0.128703 -0.03577,-0.03841 -0.06503,-0.101051 -0.06503,-0.139239 0,-0.04212 -0.02562,-0.07614 -0.06503,-0.08644 -0.05099,-0.01332 -0.06504,-0.04436 -0.06504,-0.143597 0,-0.08635 -0.02064,-0.144291 -0.06503,-0.182274 -0.04495,-0.0385 -0.06509,-0.09611 -0.06524,-0.186651 -1.22e-4,-0.07595 -0.02733,-0.171943 -0.06481,-0.228515 -0.04768,-0.07198 -0.06472,-0.152938 -0.06502,-0.308903 -2.59e-4,-0.133788 -0.01996,-0.247162 -0.05371,-0.308907 -0.04495,-0.08228 -0.05696,-0.270593 -0.07672,-1.203103 -0.02421,-1.142261 -0.02513,-1.155033 -0.09127,-1.275307 -0.03075,-0.05589 -0.03699,-0.783072 -0.02762,-3.219109 0.0067,-1.730798 0.01669,-3.165194 0.0223,-3.187549 0.0056,-0.02236 0.01996,-0.04065 0.03187,-0.04065 0.0346,0 0.03592,-0.02511 0.06304,-1.20767 0.02206,-0.961246 0.03363,-1.137496 0.07894,-1.202207 0.03807,-0.05438 0.05311,-0.147374 0.05311,-0.328724 0,-0.20954 0.01113,-0.264043 0.06504,-0.317928 0.04768,-0.04769 0.06503,-0.108387 0.06503,-0.227614 0,-0.117289 0.01264,-0.162581 0.04529,-0.162581 0.05248,0 0.08477,-0.06927 0.08477,-0.181817 0,-0.04342 0.02928,-0.104007 0.06503,-0.134633 0.03577,-0.03062 0.06503,-0.08901 0.06503,-0.129746 0,-0.04163 0.01981,-0.07406 0.04529,-0.07406 0.04902,0 0.08477,-0.06809 0.08477,-0.161448 0,-0.03222 0.02928,-0.06623 0.06504,-0.07559 0.03577,-0.0094 0.06503,-0.04033 0.06503,-0.06883 0,-0.0285 0.02562,-0.0796 0.0569,-0.113555 0.174011,-0.188788 0.203225,-0.22849 0.203225,-0.276138 0,-0.03064 0.02694,-0.05232 0.06504,-0.05232 0.04334,0 0.06503,-0.02168 0.06503,-0.06503 0,-0.04336 0.02167,-0.06503 0.06503,-0.06503 0.04334,0 0.06503,-0.02168 0.06503,-0.06503 0,-0.04369 0.02167,-0.06503 0.06605,-0.06503 0.03631,0 0.07396,-0.02061 0.08363,-0.0458 0.0097,-0.02519 0.06042,-0.06354 0.112789,-0.08524 0.05237,-0.02169 0.09521,-0.05266 0.09521,-0.06882 0,-0.01615 0.0366,-0.04328 0.08129,-0.06028 0.0447,-0.017 0.08129,-0.05322 0.08129,-0.08049 0,-0.03126 0.03016,-0.04958 0.08161,-0.04958 0.0449,0 0.106669,-0.02927 0.137292,-0.06503 0.03065,-0.03577 0.08216,-0.06503 0.114511,-0.06503 0.03236,0 0.0669,-0.02105 0.07678,-0.04679 0.0099,-0.02573 0.06429,-0.05643 0.120914,-0.06822 0.05663,-0.01179 0.133744,-0.04089 0.171371,-0.06466 0.03763,-0.02377 0.125414,-0.05324 0.195095,-0.06549 0.06968,-0.01225 0.157247,-0.04136 0.194596,-0.06471 0.03733,-0.02334 0.19099,-0.05277 0.341425,-0.06539 0.15043,-0.01263 0.322856,-0.0431 0.383161,-0.06773 0.08183,-0.03341 0.296278,-0.04487 0.845422,-0.0452 0.404674,-2.59e-4 1.05037,-0.01417 1.434873,-0.03096 0.384503,-0.01679 0.823475,-0.0333 0.975486,-0.0367 0.152802,-0.0034 0.286371,-0.02164 0.298713,-0.04078 0.03109,-0.0482 13.515682,-0.04855 13.547273,-3.87e-4 0.0122,0.01864 0.124627,0.03691 0.249817,0.04061 0.125189,0.0037 0.527573,0.02033 0.894195,0.03695 0.366622,0.01662 1.01324,0.03054 1.436928,0.03093 0.424404,3.87e-4 0.778518,0.01395 0.788551,0.03018 0.01,0.0162 0.04753,0.0218 0.08338,0.01242 0.03582,-0.0094 0.08339,-0.0021 0.105649,0.01603 0.02225,0.01819 0.167574,0.04352 0.322918,0.05629 0.178878,0.0147 0.288225,0.03826 0.298196,0.06425 0.0087,0.02257 0.09617,0.05108 0.194455,0.06336 0.09949,0.01244 0.185968,0.04124 0.195084,0.065 0.009,0.02347 0.06734,0.05223 0.129635,0.06392 0.0623,0.01168 0.120827,0.04095 0.130065,0.06503 0.0093,0.02408 0.06995,0.05376 0.134916,0.06594 0.06496,0.01219 0.126223,0.0433 0.13614,0.06914 0.0099,0.02584 0.04221,0.04698 0.07176,0.04698 0.02957,0 0.072,0.02927 0.09435,0.06503 0.02235,0.03577 0.0603,0.06503 0.08436,0.06503 0.02406,0 0.08322,0.03658 0.131465,0.08129 0.04822,0.04471 0.101593,0.08129 0.118557,0.08129 0.01698,0 0.03084,0.02195 0.03084,0.04877 0,0.02683 0.02757,0.04877 0.06124,0.04877 0.03392,0 0.06883,0.02904 0.07825,0.06503 0.0094,0.03577 0.0386,0.06503 0.06504,0.06503 0.0264,0 0.05568,0.02927 0.06503,0.06503 0.0094,0.03577 0.04031,0.06503 0.06883,0.06503 0.03016,0 0.05182,0.02721 0.05182,0.06503 0,0.04336 0.02167,0.06503 0.06503,0.06503 0.04368,0 0.06504,0.02168 0.06504,0.06605 0,0.03633 0.02059,0.07396 0.04578,0.08363 0.02518,0.0097 0.06311,0.05937 0.08427,0.11045 0.02113,0.05108 0.05908,0.100784 0.08427,0.110449 0.02518,0.0097 0.04578,0.0473 0.04578,0.08363 0,0.04438 0.02133,0.06605 0.06503,0.06605 0.0518,0 0.06503,0.02168 0.06503,0.106581 0,0.06634 0.02455,0.127602 0.06503,0.162262 0.03577,0.03062 0.06503,0.09168 0.06503,0.135676 0,0.044 0.02352,0.09314 0.05222,0.109215 0.03245,0.01817 0.05844,0.08946 0.06867,0.188583 0.0091,0.08765 0.03792,0.176442 0.06412,0.197315 0.02996,0.02388 0.0581,0.138421 0.07582,0.308904 0.03119,0.30025 0.04051,0.353441 0.07016,0.401018 0.01113,0.01789 0.03079,0.376377 0.04368,0.79665 0.01288,0.420272 0.03743,0.781652 0.05454,0.803066 0.01713,0.02142 0.02718,0.102487 0.02245,0.180165 -0.0049,0.07768 -2.58e-4,0.155266 0.01,0.17242 0.01025,0.01715 0.02933,0.466679 0.04236,0.998939 0.01303,0.532261 0.0367,0.975752 0.05251,0.985536 0.03797,0.02346 0.03782,3.51628 -1.27e-4,3.539744 -0.01591,0.0098 -0.03973,0.456981 -0.0529,0.993666 -0.01318,0.536685 -0.03309,0.975789 -0.04426,0.975789 -0.01113,0 -0.02338,0.07682 -0.02718,0.170708 -0.0039,0.09389 -0.02069,0.434096 -0.03753,0.756005 -0.01684,0.321909 -0.03397,0.713327 -0.03802,0.869809 -0.0039,0.156486 -0.02011,0.284516 -0.03563,0.284516 -0.01552,0 -0.02591,0.01098 -0.02308,0.0244 0.0029,0.01342 -0.0034,0.04631 -0.01401,0.07316 -0.01054,0.02684 -0.02474,0.139679 -0.03153,0.250784 -0.0079,0.129669 -0.03201,0.223736 -0.06726,0.262691 -0.03289,0.03636 -0.05492,0.114569 -0.05492,0.195167 0,0.101213 -0.01611,0.143105 -0.06503,0.169298 -0.04231,0.02264 -0.06503,0.06808 -0.06503,0.130064 0,0.06198 -0.02269,0.10742 -0.06503,0.130065 -0.04231,0.02264 -0.06504,0.06808 -0.06504,0.130064 0,0.06198 -0.02269,0.10742 -0.06503,0.130065 -0.03577,0.01913 -0.06503,0.06004 -0.06503,0.09087 0,0.03084 -0.02928,0.07435 -0.06503,0.09668 -0.03577,0.02235 -0.06503,0.06877 -0.06503,0.103179 0,0.03441 -0.02928,0.07185 -0.06503,0.0832 -0.03577,0.01137 -0.06503,0.03533 -0.06503,0.05332 0,0.04075 -0.578968,0.613267 -0.620197,0.613267 -0.01659,0 -0.03011,0.02196 -0.03011,0.04875 0,0.02684 -0.02601,0.04875 -0.05786,0.04875 -0.03182,0 -0.07894,0.02928 -0.104726,0.06504 -0.02577,0.03577 -0.07278,0.06503 -0.104448,0.06503 -0.03167,0 -0.07585,0.02928 -0.09819,0.06503 -0.02235,0.03577 -0.06636,0.06503 -0.09783,0.06503 -0.03148,0 -0.08648,0.02928 -0.122246,0.06504 -0.03577,0.03577 -0.0943,0.06504 -0.130065,0.06504 -0.03577,0 -0.0943,0.02928 -0.130064,0.06503 -0.03885,0.03885 -0.108387,0.06503 -0.172709,0.06503 -0.06273,0 -0.136814,0.02713 -0.177481,0.06503 -0.05116,0.04768 -0.115761,0.06531 -0.241872,0.06607 -0.09771,4.88e-4 -0.19873,0.02123 -0.233761,0.04773 -0.03392,0.02567 -0.07418,0.03899 -0.08942,0.02958 -0.01523,-0.0094 -0.02772,-0.0039 -0.02772,0.01244 0,0.01689 -0.503225,0.03709 -1.172196,0.0471 -1.015641,0.01518 -1.179921,0.02455 -1.230047,0.0699 -0.05239,0.04739 -0.37014,0.05236 -3.361703,0.05236 -2.434575,0 -3.327941,0.01 -3.395391,0.03777 -0.05035,0.02079 -0.102511,0.03538 -0.115922,0.0325 -0.01342,-0.0029 -0.0244,0.0094 -0.0244,0.02728 0,0.02113 -0.438967,0.0325 -1.251872,0.0325 -0.932135,0 -1.251877,-0.0097 -1.251877,-0.03792 z m 11.371782,-3.02672 c 0.03875,-0.03509 0.114882,-0.0569 0.198754,-0.0569 0.09571,0 0.152436,-0.01923 0.191635,-0.06503 0.03065,-0.03577 0.09581,-0.06503 0.144861,-0.06503 0.0559,0 0.102169,-0.02426 0.123984,-0.06504 0.02016,-0.03763 0.06808,-0.06503 0.113808,-0.06503 0.04573,0 0.09366,-0.02738 0.113808,-0.06503 0.01913,-0.03577 0.05525,-0.06503 0.08024,-0.06503 0.02499,0 0.05473,-0.02928 0.06608,-0.06503 0.01137,-0.03577 0.0406,-0.06503 0.06503,-0.06503 0.0244,0 0.05368,-0.02928 0.06504,-0.06504 0.01137,-0.03577 0.0406,-0.06503 0.06504,-0.06503 0.0244,0 0.05325,-0.02792 0.06408,-0.06203 0.01083,-0.03411 0.03968,-0.0697 0.06416,-0.07909 0.02445,-0.0094 0.05455,-0.06294 0.06686,-0.119011 0.0123,-0.05607 0.04256,-0.109684 0.06722,-0.119142 0.02465,-0.0095 0.05439,-0.06817 0.06607,-0.130465 0.01171,-0.06229 0.04026,-0.120557 0.06349,-0.129474 0.02323,-0.0089 0.0525,-0.07693 0.06503,-0.151142 0.01254,-0.07422 0.04256,-0.1651 0.06672,-0.201966 0.02416,-0.0369 0.05831,-0.23094 0.07588,-0.431266 0.01757,-0.200331 0.04719,-0.392668 0.06578,-0.427416 0.01952,-0.03646 0.03382,-0.291812 0.03382,-0.604008 0,-0.533318 -9.77e-4,-0.542376 -0.08515,-0.652461 l -0.08515,-0.111641 h -0.891892 -0.891892 l -0.08052,0.08689 c -0.04431,0.04778 -0.08706,0.117288 -0.09504,0.154452 -0.008,0.03714 -0.01859,0.401643 -0.02362,0.809952 -0.0081,0.663133 -0.01518,0.74683 -0.06599,0.783979 -0.03128,0.02289 -0.0569,0.05293 -0.0569,0.06679 0,0.01386 -0.03733,0.0598 -0.08297,0.102095 -0.07313,0.06778 -0.114403,0.07689 -0.348179,0.07689 -0.261993,0 -0.266712,-0.0015 -0.388519,-0.120406 -0.072,-0.07031 -0.123306,-0.151484 -0.123306,-0.195095 0,-0.04109 -0.02928,-0.10396 -0.06504,-0.139727 -0.06248,-0.06248 -0.06503,-0.108386 -0.06503,-1.170586 v -1.105551 h 1.606903 1.606903 l 0.06907,-0.111744 c 0.06789,-0.109855 0.0689,-0.134252 0.05955,-1.442018 -0.0065,-0.914817 -0.02079,-1.344514 -0.04573,-1.375875 -0.01991,-0.02508 -0.04548,-0.228506 -0.05687,-0.452054 -0.01425,-0.2808 -0.03406,-0.416506 -0.06407,-0.43897 -0.02387,-0.01789 -0.05253,-0.0892 -0.06368,-0.158485 -0.01113,-0.06928 -0.04285,-0.150914 -0.07043,-0.1814 -0.02757,-0.03049 -0.05016,-0.07704 -0.05016,-0.103457 0,-0.02641 -0.0366,-0.09761 -0.08129,-0.158209 -0.0447,-0.0606 -0.08129,-0.129289 -0.08129,-0.152641 0,-0.02335 -0.02025,-0.04246 -0.045,-0.04246 -0.02474,0 -0.05263,-0.02927 -0.06199,-0.06503 -0.0094,-0.03577 -0.0386,-0.06503 -0.06503,-0.06503 -0.0264,0 -0.05568,-0.02927 -0.06504,-0.06503 -0.0094,-0.03577 -0.0386,-0.06503 -0.06503,-0.06503 -0.0264,0 -0.05567,-0.02926 -0.06503,-0.06503 -0.0094,-0.03577 -0.03934,-0.06503 -0.06664,-0.06503 -0.02728,0 -0.05891,-0.02927 -0.07027,-0.06503 -0.01137,-0.03577 -0.04666,-0.06503 -0.07844,-0.06503 -0.03177,0 -0.08429,-0.02927 -0.116659,-0.06503 -0.03236,-0.03577 -0.0909,-0.06503 -0.130064,-0.06503 -0.03919,0 -0.09769,-0.02927 -0.130065,-0.06503 -0.04709,-0.05202 -0.100148,-0.06503 -0.26517,-0.06503 -0.154671,0 -0.206314,-0.01134 -0.206314,-0.04529 0,-0.0751 -0.07825,-0.08477 -0.685822,-0.08477 -0.542712,0 -0.586796,0.0045 -0.638634,0.06503 -0.04344,0.05072 -0.09592,0.06503 -0.238515,0.06503 -0.141533,0 -0.196124,0.01469 -0.241681,0.06503 -0.03236,0.03577 -0.0909,0.06503 -0.130065,0.06503 -0.03919,0 -0.0977,0.02926 -0.130069,0.06503 -0.03236,0.03577 -0.08722,0.06503 -0.12189,0.06503 -0.03568,0 -0.07041,0.02821 -0.08004,0.06503 -0.0094,0.03577 -0.04221,0.06503 -0.07302,0.06503 -0.07285,0 -0.456658,0.359522 -0.456658,0.427763 0,0.02882 -0.02928,0.06005 -0.06504,0.0694 -0.0389,0.01018 -0.06503,0.04435 -0.06503,0.08508 0,0.03845 -0.02099,0.06808 -0.04817,0.06808 -0.0265,0 -0.05707,0.0355 -0.06796,0.0789 -0.01088,0.0434 -0.04773,0.10419 -0.08191,0.135104 -0.0347,0.03141 -0.06211,0.09903 -0.06211,0.15326 0,0.05338 -0.02387,0.114501 -0.05302,0.135825 -0.03299,0.02413 -0.05942,0.105319 -0.06995,0.214941 -0.01035,0.107929 -0.03704,0.190897 -0.06891,0.214191 -0.047,0.03435 -0.05199,0.318857 -0.05199,2.947435 0,2.647068 0.0049,2.914854 0.05318,2.969733 0.0326,0.03694 0.05854,0.138536 0.06702,0.26233 0.0082,0.118967 0.0347,0.225899 0.06463,0.260129 0.02796,0.03197 0.06036,0.111578 0.07206,0.176915 0.01171,0.06534 0.0428,0.127068 0.06915,0.137175 0.02635,0.0101 0.04788,0.04583 0.04788,0.07939 0,0.03358 0.02796,0.08631 0.06211,0.117219 0.03416,0.03089 0.07102,0.09171 0.08191,0.135106 0.01088,0.04339 0.03977,0.07889 0.06417,0.07889 0.0244,0 0.05201,0.02928 0.06137,0.06504 0.0094,0.03577 0.04031,0.06503 0.06883,0.06503 0.0285,0 0.05182,0.02333 0.05182,0.05182 0,0.0285 0.02928,0.05947 0.06503,0.06883 0.03577,0.0093 0.06503,0.0386 0.06503,0.06503 0,0.0264 0.02792,0.05533 0.06203,0.06425 0.03411,0.0089 0.06932,0.04412 0.07825,0.07825 0.0089,0.03411 0.04456,0.06203 0.07926,0.06203 0.03465,0 0.08952,0.02928 0.12189,0.06503 0.03236,0.03577 0.0909,0.06504 0.130064,0.06504 0.03919,0 0.0977,0.02928 0.13007,0.06503 0.03987,0.04407 0.100148,0.06503 0.186876,0.06503 0.07988,0 0.159932,0.02509 0.212873,0.06674 0.08061,0.06341 0.120075,0.06625 0.790314,0.0569 0.617542,-0.0086 0.713283,-0.01694 0.768259,-0.06674 z m -14.395798,-0.121939 c 0.0409,-0.0409 0.108391,-0.06503 0.181888,-0.06503 0.0895,0 0.120831,-0.01523 0.133856,-0.06504 0.01269,-0.04856 0.04436,-0.06503 0.124828,-0.06503 0.07927,0 0.113291,-0.01723 0.128464,-0.06503 0.01137,-0.03577 0.04666,-0.06503 0.07844,-0.06503 0.03177,0 0.08429,-0.02928 0.116658,-0.06503 0.03236,-0.03577 0.0777,-0.06503 0.100744,-0.06503 0.02304,0 0.06101,-0.0266 0.08438,-0.05905 0.02338,-0.03245 0.06809,-0.0686 0.09939,-0.08027 0.03128,-0.01166 0.0569,-0.04192 0.0569,-0.06723 0,-0.02533 0.02733,-0.05316 0.06076,-0.06189 0.05518,-0.01445 0.0623,0.01113 0.07754,0.278415 0.01337,0.234776 0.02879,0.303095 0.07618,0.33774 0.047,0.03436 0.256582,0.04163 1.003627,0.03485 l 0.944233,-0.0086 v -4.812405 -4.812406 l -0.962983,-0.0086 c -0.865973,-0.0077 -0.967517,-0.0031 -1.008004,0.04563 -0.03763,0.04532 -0.04646,0.634239 -0.05386,3.582221 l -0.0088,3.527983 -0.10928,0.10072 c -0.175402,0.161664 -0.235732,0.206572 -0.308541,0.229685 -0.03768,0.01196 -0.06851,0.0427 -0.06851,0.06832 0,0.02562 -0.02728,0.04661 -0.06065,0.04661 -0.03338,0 -0.09785,0.02928 -0.143324,0.06503 -0.110968,0.08729 -0.221146,0.07966 -0.300031,-0.02079 -0.03577,-0.04553 -0.09058,-0.108079 -0.121797,-0.138981 -0.05325,-0.05271 -0.05728,-0.286346 -0.06504,-3.777006 l -0.0082,-3.720825 -0.939851,-0.0086 c -0.840083,-0.0077 -0.946224,-0.0029 -0.999878,0.04568 -0.05775,0.05226 -0.06002,0.209706 -0.06002,4.156085 0,2.909557 0.01025,4.112035 0.03533,4.137101 0.01942,0.01942 0.04363,0.156296 0.05376,0.304139 0.01376,0.200526 0.03367,0.284047 0.07847,0.328844 0.03304,0.03304 0.06004,0.08811 0.06004,0.122417 0,0.09691 0.03504,0.165241 0.08477,0.165241 0.02489,0 0.04529,0.02928 0.04529,0.06503 0,0.03782 0.02167,0.06503 0.05182,0.06503 0.0285,0 0.05947,0.02928 0.06882,0.06503 0.0094,0.03577 0.03675,0.06503 0.06085,0.06503 0.02411,0 0.0595,0.02928 0.07864,0.06503 0.01913,0.03577 0.05759,0.06504 0.08543,0.06504 0.02787,0 0.08783,0.02928 0.133305,0.06504 0.07425,0.05841 0.131914,0.06503 0.566035,0.06503 0.440002,0 0.489191,-0.0059 0.548393,-0.06503 z m 8.755747,0 c 0.04548,-0.03577 0.120753,-0.06503 0.167287,-0.06503 0.04656,0 0.10967,-0.02928 0.140293,-0.06504 0.03065,-0.03577 0.07999,-0.06503 0.109695,-0.06503 0.02972,0 0.06167,-0.02928 0.07102,-0.06503 0.0093,-0.03577 0.04031,-0.06503 0.06882,-0.06503 0.0285,0 0.05182,-0.02333 0.05182,-0.05182 0,-0.0285 0.02928,-0.05947 0.06504,-0.06883 0.03577,-0.0094 0.06503,-0.04104 0.06503,-0.07042 0,-0.02938 0.02928,-0.0717 0.06503,-0.09403 0.03636,-0.02269 0.06503,-0.07583 0.06503,-0.120485 0,-0.04661 0.02709,-0.09437 0.06504,-0.114677 0.04675,-0.02499 0.06503,-0.06808 0.06503,-0.153036 0,-0.06697 0.02469,-0.145496 0.0569,-0.181112 0.05347,-0.05909 0.0569,-0.278513 0.0569,-3.632842 0,-3.354334 -0.0034,-3.573759 -0.0569,-3.632835 -0.03431,-0.03791 -0.0569,-0.114722 -0.0569,-0.193469 0,-0.0893 -0.02055,-0.149204 -0.06503,-0.189447 -0.03577,-0.03237 -0.06504,-0.09454 -0.06504,-0.13815 0,-0.05195 -0.02245,-0.08516 -0.06503,-0.0963 -0.03577,-0.0093 -0.06503,-0.04277 -0.06503,-0.07426 0,-0.03149 -0.02294,-0.07628 -0.05092,-0.09952 -0.02801,-0.02324 -0.07228,-0.08356 -0.09839,-0.134046 -0.02611,-0.05048 -0.06677,-0.09179 -0.09036,-0.09179 -0.02357,0 -0.06938,-0.02927 -0.101754,-0.06503 -0.03236,-0.03577 -0.08414,-0.06503 -0.115053,-0.06503 -0.03089,0 -0.06385,-0.02927 -0.07321,-0.06503 -0.01303,-0.04981 -0.04436,-0.06503 -0.133857,-0.06503 -0.0735,0 -0.140981,-0.02413 -0.181883,-0.06503 -0.05906,-0.05906 -0.108386,-0.06503 -0.536837,-0.06503 -0.431563,0 -0.476555,0.0055 -0.527486,0.06503 -0.03363,0.03926 -0.09592,0.06503 -0.157223,0.06503 -0.06025,0 -0.125477,0.02645 -0.160395,0.06503 -0.03236,0.03577 -0.08722,0.06503 -0.12189,0.06503 -0.03568,0 -0.07041,0.02821 -0.08004,0.06503 -0.0094,0.03577 -0.04231,0.06503 -0.07321,0.06503 -0.03089,0 -0.08269,0.02927 -0.115053,0.06503 -0.03236,0.03577 -0.08585,0.06503 -0.11885,0.06503 -0.05753,0 -0.06009,-0.07151 -0.06246,-1.747749 -0.002,-1.320566 -0.01249,-1.775566 -0.04353,-1.861556 l -0.04104,-0.113807 -0.916523,-0.0086 c -0.851097,-0.008 -0.917977,-0.0045 -0.936898,0.04877 -0.01122,0.03158 -0.04378,0.08455 -0.07234,0.117728 -0.04719,0.05481 -0.05196,0.63845 -0.05196,6.396176 0,6.297702 3.91e-4,6.336154 0.06504,6.385289 0.05527,0.04202 0.206514,0.04831 1.008004,0.04207 l 0.942969,-0.0074 0.02806,-0.186968 c 0.02957,-0.196822 0.08618,-0.242614 0.150761,-0.121939 0.01913,0.03577 0.05397,0.06503 0.07739,0.06503 0.02343,0 0.06908,0.02928 0.101447,0.06503 0.03236,0.03577 0.09316,0.06503 0.135105,0.06503 0.04348,0 0.07625,0.01947 0.07625,0.04529 0,0.06002 0.07198,0.08477 0.246533,0.08477 0.102266,0 0.143661,0.01327 0.143661,0.04607 0,0.07182 0.04836,0.07869 0.572779,0.08143 0.444507,0.0024 0.49939,-0.0034 0.574161,-0.06246 z m -12.397564,-0.154705 c 0.04261,-0.07786 0.05083,-0.756664 0.06503,-5.356799 l 0.01625,-5.267635 0.931266,-0.0086 c 0.816218,-0.0076 0.936737,-0.0152 0.975491,-0.06188 0.03519,-0.0424 0.04422,-0.26045 0.04422,-1.069112 0,-0.953323 -0.0039,-1.020064 -0.06194,-1.084315 l -0.06195,-0.06846 h -3.003519 -3.00352 l -0.02972,0.07813 c -0.01635,0.04297 -0.04524,0.08773 -0.06423,0.09947 -0.02304,0.01423 -0.0345,0.325717 -0.0345,0.935478 0,0.80184 0.007,0.929328 0.0569,1.037763 l 0.0569,0.12362 0.951104,7.8e-4 0.9511,9.28e-4 v 5.326163 c 0,4.099222 0.009,5.335155 0.03899,5.365188 0.02874,0.02875 0.31367,0.03894 1.081169,0.03875 l 1.042146,-2.58e-4 0.04875,-0.08916 z"
         id="path2298" />
      <path
         style="fill:#ec2828;fill-opacity:1;stroke:none;stroke-width:0.092541;stroke-linecap:round"
         d="m 47.684249,-29.521337 c -0.08597,-0.0071 -0.181083,-0.03475 -0.211356,-0.06145 -0.03026,-0.02674 -0.106263,-0.0937 -0.168853,-0.148839 l -0.113808,-0.100256 -0.0087,-2.758045 c -0.0081,-2.567803 -0.0049,-2.767117 0.04832,-2.889574 0.03133,-0.07234 0.07351,-0.13153 0.0937,-0.13153 0.0202,0 0.07392,-0.02926 0.119391,-0.06503 0.06721,-0.05286 0.131914,-0.06503 0.345807,-0.06503 0.206715,0 0.263131,0.01 0.263131,0.04658 0,0.02562 0.02928,0.05587 0.06503,0.06722 0.03577,0.01135 0.06503,0.04892 0.06503,0.08348 0,0.03456 0.02928,0.09211 0.06503,0.127873 0.06402,0.06402 0.06503,0.108388 0.06503,2.85639 0,2.750067 -9.76e-4,2.792232 -0.06503,2.850215 -0.03577,0.03236 -0.06503,0.08585 -0.06503,0.118845 0,0.04592 -0.02479,0.0601 -0.105677,0.06044 -0.05813,2.59e-4 -0.134945,0.0052 -0.170708,0.01103 -0.03577,0.0058 -0.135374,0.0049 -0.221345,-0.0024 z"
         id="path2300" />
      <path
         style="fill:#ec2828;fill-opacity:1;stroke:none;stroke-width:0.092541;stroke-linecap:round"
         d="m 53.449611,-34.725272 c 0,-0.50974 0.0044,-0.54758 0.06503,-0.585568 0.03577,-0.02234 0.06504,-0.07452 0.06504,-0.115962 0,-0.07594 0.120558,-0.216747 0.185583,-0.216747 0.01928,0 0.04348,-0.02195 0.05379,-0.04877 0.01445,-0.03758 0.07686,-0.04877 0.272047,-0.04877 0.218115,0 0.258972,0.009 0.293945,0.06503 0.02235,0.03577 0.06243,0.06503 0.08911,0.06503 0.02684,0 0.04851,0.02907 0.04851,0.06503 0,0.03577 0.01996,0.06503 0.04436,0.06503 0.06283,0 0.08571,0.213887 0.08571,0.801186 v 0.499465 H 54.051184 53.44963 Z"
         id="path2302" />
      <path
         style="fill:#ffffff;fill-opacity:1;stroke:none;stroke-width:0.092541;stroke-linecap:round"
         d="m 13.682222,-30.701079 c 0,-2.525428 -0.0012,-2.569881 -0.06503,-2.633815 -0.04336,-0.04336 -0.06503,-0.108388 -0.06503,-0.195098 0,-0.08671 -0.02168,-0.151743 -0.06503,-0.195098 -0.04766,-0.04766 -0.06503,-0.108388 -0.06503,-0.227338 0,-0.127091 -0.01411,-0.171118 -0.06503,-0.202919 -0.05246,-0.03277 -0.06503,-0.07583 -0.06503,-0.222851 0,-0.14094 -0.01474,-0.195573 -0.06503,-0.241089 -0.04336,-0.03924 -0.06503,-0.10015 -0.06503,-0.182735 0,-0.0906 -0.01747,-0.13323 -0.06503,-0.158686 -0.05466,-0.02925 -0.06503,-0.06808 -0.06503,-0.243401 0,-0.15831 -0.01267,-0.215688 -0.05257,-0.238017 -0.03469,-0.01941 -0.05958,-0.09462 -0.07316,-0.221101 -0.01192,-0.110986 -0.03427,-0.184833 -0.0531,-0.17542 -0.01863,0.0093 -0.0464,-0.07555 -0.06503,-0.198717 -0.01788,-0.118235 -0.04915,-0.235295 -0.06948,-0.26013 -0.02033,-0.02484 -0.04753,-0.111001 -0.06044,-0.191479 -0.01291,-0.08048 -0.04208,-0.168271 -0.06482,-0.195097 -0.02274,-0.02683 -0.05145,-0.132762 -0.06379,-0.235414 -0.01234,-0.102651 -0.04117,-0.197761 -0.06405,-0.211355 -0.02288,-0.0136 -0.05046,-0.101829 -0.06128,-0.196075 -0.01082,-0.09425 -0.0414,-0.211307 -0.06795,-0.260131 -0.02655,-0.04882 -0.05714,-0.143642 -0.06796,-0.210707 -0.01118,-0.06926 -0.03819,-0.121936 -0.06253,-0.121936 -0.0294,0 -0.04828,-0.06761 -0.06014,-0.215455 -0.0097,-0.120512 -0.03531,-0.226588 -0.05818,-0.240721 -0.02248,-0.0139 -0.05347,-0.117332 -0.06886,-0.229854 -0.01539,-0.112522 -0.04753,-0.234657 -0.07143,-0.271409 -0.0239,-0.03675 -0.05357,-0.121297 -0.06593,-0.187875 -0.01236,-0.06658 -0.042,-0.132424 -0.06587,-0.146323 -0.02619,-0.01525 -0.04918,-0.107574 -0.05799,-0.232868 -0.0095,-0.134855 -0.03197,-0.220307 -0.06419,-0.243872 -0.02914,-0.02131 -0.05654,-0.108499 -0.06642,-0.211388 -0.01104,-0.114985 -0.03506,-0.18532 -0.06995,-0.204843 -0.03517,-0.01968 -0.05312,-0.07314 -0.05312,-0.158178 v -0.128449 h 0.780391 0.780389 v 0.165625 c 0,0.138279 0.01074,0.168433 0.06503,0.182632 0.05759,0.01506 0.06503,0.04435 0.06503,0.255941 0,0.205657 0.0091,0.243784 0.06503,0.273741 0.05541,0.02965 0.06503,0.06808 0.06503,0.259657 0,0.173659 0.01202,0.231581 0.05279,0.254396 0.03828,0.02142 0.05741,0.09415 0.0696,0.26452 0.01036,0.144661 0.03247,0.240984 0.05754,0.250605 0.0224,0.0086 0.05079,0.0988 0.06309,0.200454 0.01229,0.101653 0.04087,0.214089 0.0635,0.249857 0.02262,0.03577 0.05129,0.16542 0.06369,0.288114 0.0124,0.122695 0.04169,0.24223 0.0651,0.265635 0.02341,0.02341 0.05174,0.14096 0.06297,0.261236 0.01158,0.124075 0.04186,0.242372 0.06998,0.273444 0.02726,0.03012 0.04956,0.112703 0.04956,0.18352 0,0.07082 0.02703,0.181772 0.06006,0.246567 0.03303,0.06479 0.06939,0.21787 0.08079,0.340167 0.01318,0.141378 0.03868,0.235506 0.07,0.258459 0.03005,0.02202 0.04927,0.08779 0.04927,0.168594 0,0.271639 0.0961,0.394137 0.31053,0.395822 0.15564,0.0012 0.209731,-0.04289 0.209731,-0.17105 0,-0.05173 0.02927,-0.131251 0.06503,-0.176722 0.04725,-0.06006 0.06503,-0.131911 0.06503,-0.262699 0,-0.123338 0.01729,-0.19913 0.05492,-0.240705 0.03474,-0.03839 0.06,-0.134892 0.06875,-0.262691 0.0084,-0.122905 0.03447,-0.225416 0.06653,-0.261788 0.03569,-0.04049 0.05674,-0.139928 0.06524,-0.308192 0.009,-0.178662 0.02707,-0.25903 0.06426,-0.286225 0.03661,-0.02677 0.05565,-0.107708 0.0652,-0.2771 0.0095,-0.169121 0.03136,-0.262027 0.07442,-0.316835 0.04113,-0.05234 0.06094,-0.130452 0.06094,-0.240288 0,-0.116584 0.01591,-0.174375 0.05611,-0.203768 0.04232,-0.03095 0.05918,-0.101758 0.06859,-0.288102 0.0069,-0.13589 0.02316,-0.247074 0.03622,-0.247074 0.0524,0 0.09921,-0.177155 0.09921,-0.375466 0,-0.166471 0.01344,-0.223264 0.06503,-0.27486 0.04607,-0.04606 0.06503,-0.108386 0.06503,-0.213677 0,-0.08664 0.01971,-0.168355 0.04725,-0.195896 0.02599,-0.02599 0.05714,-0.134685 0.06923,-0.24155 l 0.02198,-0.194298 h 0.776191 0.77619 v 0.14253 c 0,0.115185 -0.01247,0.145794 -0.06503,0.159537 -0.05498,0.01438 -0.06503,0.04435 -0.06503,0.19385 0,0.13555 -0.01518,0.190588 -0.06503,0.235698 -0.05082,0.04599 -0.06503,0.100149 -0.06503,0.247768 0,0.155635 -0.01145,0.195044 -0.06503,0.223718 -0.05153,0.02758 -0.06503,0.06808 -0.06503,0.195098 0,0.127014 -0.0135,0.167519 -0.06503,0.195097 -0.05153,0.02758 -0.06503,0.06808 -0.06503,0.195098 0,0.127014 -0.0135,0.167518 -0.06503,0.195098 -0.05531,0.0296 -0.06503,0.06808 -0.06503,0.257481 0,0.19533 -0.008,0.224766 -0.06503,0.239683 -0.0543,0.0142 -0.06503,0.04435 -0.06503,0.182632 0,0.122271 -0.01702,0.182649 -0.06503,0.230659 -0.04336,0.04336 -0.06503,0.108387 -0.06503,0.195098 0,0.08671 -0.02168,0.151741 -0.06503,0.195096 -0.04576,0.04576 -0.06503,0.108388 -0.06503,0.211356 0,0.102969 -0.01927,0.165593 -0.06503,0.211356 -0.05029,0.05029 -0.06503,0.108388 -0.06503,0.256338 0,0.163959 -0.0093,0.193736 -0.06503,0.208312 -0.05422,0.01418 -0.06503,0.04435 -0.06503,0.181488 0,0.131201 -0.01316,0.171523 -0.06503,0.199285 -0.05285,0.02829 -0.06503,0.06808 -0.06503,0.2125 0,0.129616 -0.01218,0.177695 -0.04498,0.177695 -0.05156,0 -0.08399,0.09771 -0.08464,0.255001 -2.59e-4,0.05977 -0.02971,0.145882 -0.06548,0.191355 -0.03655,0.04647 -0.06503,0.131911 -0.06503,0.195096 0,0.06319 -0.02848,0.148631 -0.06503,0.195098 -0.04556,0.05792 -0.06518,0.132479 -0.06553,0.249 -2.58e-4,0.09148 -0.01468,0.188275 -0.03202,0.215101 -0.01734,0.02683 -0.03277,0.03414 -0.0343,0.01626 -0.0071,-0.08326 -0.05894,0.112815 -0.06096,0.230704 -0.0015,0.08973 -0.02349,0.152346 -0.06732,0.192008 -0.05176,0.04684 -0.06503,0.100149 -0.06503,0.261187 0,0.140185 -0.01498,0.21477 -0.04877,0.242815 -0.04259,0.03534 -0.04877,0.359706 -0.04877,2.556508 v 2.516032 h -0.796648 -0.79665 z"
         id="path2304" />
      <path
         style="fill:#ffffff;fill-opacity:1;stroke:none;stroke-width:0.092541;stroke-linecap:round"
         d="m 19.504632,-27.991689 c -0.07938,-0.0082 -0.159856,-0.03431 -0.178839,-0.05802 -0.01899,-0.02372 -0.104019,-0.05291 -0.188968,-0.06485 -0.102628,-0.01445 -0.154451,-0.03743 -0.154451,-0.0685 0,-0.02572 -0.02574,-0.0468 -0.05721,-0.0468 -0.03147,0 -0.07549,-0.02928 -0.09782,-0.06503 -0.02591,-0.04148 -0.07583,-0.06503 -0.137887,-0.06503 -0.0756,0 -0.09727,-0.01449 -0.09727,-0.06503 0,-0.04334 -0.02168,-0.06503 -0.06503,-0.06503 -0.04336,0 -0.06503,-0.02167 -0.06503,-0.06504 0,-0.04334 -0.02168,-0.06503 -0.06503,-0.06503 -0.04336,0 -0.06503,-0.02167 -0.06503,-0.06503 0,-0.03577 -0.02927,-0.0943 -0.06503,-0.130065 -0.03577,-0.03577 -0.06503,-0.08835 -0.06503,-0.116849 0,-0.0285 -0.02927,-0.05947 -0.06503,-0.06883 -0.0493,-0.01288 -0.06503,-0.04436 -0.06503,-0.130065 0,-0.08571 -0.01573,-0.117171 -0.06503,-0.130064 -0.05381,-0.01406 -0.06503,-0.04436 -0.06503,-0.17552 0,-0.1233 -0.01445,-0.167535 -0.06503,-0.199125 -0.06428,-0.04016 -0.06503,-0.07583 -0.06503,-3.069272 0,-3.001311 6.35e-4,-3.02881 0.06503,-3.045664 0.05115,-0.01338 0.06503,-0.04435 0.06503,-0.145076 0,-0.08677 0.02097,-0.147046 0.06503,-0.186923 0.03577,-0.03237 0.06503,-0.08534 0.06503,-0.117701 0,-0.03237 0.02926,-0.07451 0.06503,-0.09365 0.04258,-0.02279 0.06503,-0.06808 0.06503,-0.131208 0,-0.06653 0.01606,-0.0964 0.05182,-0.0964 0.0285,0 0.05947,-0.02926 0.06883,-0.06503 0.0094,-0.03577 0.03862,-0.06503 0.06503,-0.06503 0.02641,0 0.05568,-0.02927 0.06503,-0.06503 0.0094,-0.03577 0.0423,-0.06503 0.07321,-0.06503 0.03091,0 0.08268,-0.02927 0.115053,-0.06503 0.03237,-0.03577 0.07802,-0.06503 0.101445,-0.06503 0.02343,0 0.05825,-0.02927 0.07739,-0.06503 0.02264,-0.04231 0.06808,-0.06503 0.130066,-0.06503 0.06198,0 0.107419,-0.02272 0.130064,-0.06503 0.02758,-0.05153 0.06808,-0.06503 0.195098,-0.06503 0.127014,0 0.167519,-0.0135 0.195097,-0.06503 0.03302,-0.06169 0.06808,-0.06503 0.682842,-0.06503 0.614758,0 0.649824,0.0034 0.682841,0.06503 0.02746,0.0513 0.06808,0.06503 0.19245,0.06503 0.130299,0 0.160594,0.01128 0.17465,0.06503 0.01303,0.04981 0.04435,0.06503 0.133858,0.06503 0.08326,0 0.116851,0.01431 0.116851,0.04979 0,0.02739 0.02561,0.05935 0.0569,0.07102 0.0313,0.01167 0.07602,0.0478 0.09939,0.08027 0.02337,0.03247 0.05744,0.05904 0.07572,0.05904 0.04549,0 0.288248,0.241222 0.288248,0.28643 0,0.02004 0.02927,0.05211 0.06503,0.07125 0.03577,0.01914 0.06503,0.05525 0.06503,0.08024 0,0.02499 0.02926,0.05473 0.06503,0.06608 0.04815,0.01528 0.06503,0.0492 0.06503,0.13064 0,0.06797 0.0203,0.12136 0.05312,0.13973 0.03511,0.01965 0.05851,0.08909 0.06902,0.204843 0.0087,0.09631 0.03971,0.202258 0.06881,0.235434 0.04801,0.05474 0.05291,0.324526 0.05291,2.913341 0,2.438729 -0.0068,2.861235 -0.04694,2.909579 -0.02582,0.03109 -0.05742,0.145433 -0.07023,0.254058 -0.01509,0.128039 -0.04147,0.207681 -0.07499,0.226441 -0.03114,0.01742 -0.05171,0.07206 -0.05171,0.137336 0,0.08105 -0.01641,0.11269 -0.06503,0.125404 -0.03577,0.0094 -0.06503,0.04031 -0.06503,0.06883 0,0.0285 -0.02927,0.08108 -0.06503,0.116849 -0.03577,0.03577 -0.06503,0.09259 -0.06503,0.126273 0,0.03392 -0.02904,0.06884 -0.06503,0.07824 -0.03577,0.0094 -0.06503,0.04031 -0.06503,0.06883 0,0.03016 -0.02721,0.05182 -0.06503,0.05182 -0.04336,0 -0.06503,0.02167 -0.06503,0.06503 0,0.04178 -0.02168,0.06503 -0.06065,0.06503 -0.03336,0 -0.09785,0.02928 -0.143323,0.06503 -0.04547,0.03577 -0.105973,0.06503 -0.134451,0.06503 -0.02848,0 -0.05177,0.0203 -0.05177,0.04514 0,0.02655 -0.05027,0.05434 -0.121938,0.06743 -0.06706,0.01225 -0.157932,0.04549 -0.201927,0.07388 -0.06493,0.04187 -0.199635,0.05301 -0.715358,0.05908 -0.349451,0.0039 -0.700311,9.76e-4 -0.77969,-0.0074 z m 0.93815,-1.2265 c 0.02071,-0.02494 0.09055,-0.05529 0.155197,-0.06742 0.143471,-0.02689 0.288257,-0.165032 0.328546,-0.313412 0.01648,-0.06067 0.04426,-0.107464 0.06174,-0.103989 0.01749,0.0034 0.0365,-0.01118 0.04227,-0.0325 0.0058,-0.02138 0.01568,-1.319014 0.02203,-2.883674 0.01132,-2.787247 0.01026,-2.84658 -0.05239,-2.931328 -0.03517,-0.04757 -0.0736,-0.124934 -0.08539,-0.17191 -0.01179,-0.04698 -0.05175,-0.101636 -0.08881,-0.121467 -0.03706,-0.01983 -0.09666,-0.06334 -0.132457,-0.09669 -0.05736,-0.05344 -0.121525,-0.06063 -0.540564,-0.06063 -0.419038,0 -0.483207,0.0072 -0.540565,0.06063 -0.0358,0.03335 -0.09761,0.07804 -0.137362,0.09932 -0.03975,0.02128 -0.08075,0.08104 -0.0911,0.132802 -0.01036,0.05177 -0.04641,0.119082 -0.08012,0.149594 -0.05917,0.05355 -0.0613,0.154686 -0.0613,2.909209 0,1.569552 0.0089,2.876879 0.01974,2.905165 0.01086,0.0283 0.04012,0.05143 0.06503,0.05143 0.02623,0 0.04529,0.03309 0.04529,0.07863 0,0.110797 0.03217,0.181498 0.08258,0.181498 0.02371,0 0.05202,0.02806 0.06291,0.0624 0.01317,0.04148 0.06206,0.06954 0.145967,0.08372 0.06939,0.01171 0.134164,0.04217 0.143947,0.06766 0.02516,0.06557 0.580492,0.06643 0.634811,9.76e-4 z"
         id="path2306" />
      <path
         style="fill:#ffffff;fill-opacity:1;stroke:none;stroke-width:0.092541;stroke-linecap:round"
         d="m 25.095431,-28.051004 c -0.02226,-0.02684 -0.08259,-0.04875 -0.134046,-0.04875 -0.05146,0 -0.120292,-0.02674 -0.152956,-0.05938 -0.03266,-0.03265 -0.08388,-0.06879 -0.113806,-0.08027 -0.02993,-0.01152 -0.05442,-0.04329 -0.05442,-0.07068 0,-0.02738 -0.02195,-0.04979 -0.04877,-0.04979 -0.02683,0 -0.04877,-0.02699 -0.04877,-0.05999 0,-0.03299 -0.02926,-0.08647 -0.06503,-0.118845 -0.04028,-0.03646 -0.06503,-0.100148 -0.06503,-0.167345 0,-0.07328 -0.02111,-0.121675 -0.06503,-0.149107 -0.06447,-0.04026 -0.06503,-0.07583 -0.06503,-4.12984 v -4.089227 h 0.649895 0.649895 l 0.0086,3.514382 c 0.008,3.303779 0.01197,3.516877 0.06546,3.555987 0.04139,0.03026 0.0569,0.08707 0.0569,0.208452 0,0.131636 0.01373,0.175422 0.06503,0.207466 0.03577,0.02235 0.06503,0.06507 0.06503,0.09497 0,0.03811 0.03905,0.06095 0.13071,0.07644 0.07189,0.01215 0.151322,0.0427 0.176516,0.06789 0.05126,0.05126 0.293397,0.06441 0.262397,0.01425 -0.01074,-0.01737 0.02133,-0.0406 0.07124,-0.05169 0.188452,-0.04182 0.29817,-0.08418 0.335998,-0.129761 0.02152,-0.02591 0.05422,-0.04709 0.07271,-0.04709 0.0185,0 0.09098,-0.05853 0.161103,-0.130065 0.07013,-0.07153 0.141006,-0.130064 0.157512,-0.130064 0.01649,0 0.03001,-0.01845 0.03001,-0.04095 0,-0.02255 0.02928,-0.05923 0.06503,-0.08157 0.03577,-0.02235 0.06503,-0.06244 0.06503,-0.08911 0,-0.0267 0.02279,-0.04851 0.05069,-0.04851 0.02787,0 0.04163,-0.01464 0.0306,-0.0325 -0.01103,-0.01786 -0.0044,-0.0325 0.01435,-0.0325 0.02401,0 0.03445,-1.047344 0.03445,-3.46298 v -3.46305 h 0.650293 0.650328 v 4.470987 4.470987 h -0.650328 -0.650323 v -0.464984 c 0,-0.318297 -0.0123,-0.477292 -0.03899,-0.504001 -0.02147,-0.02147 -0.09599,-0.03899 -0.165627,-0.03899 -0.09926,0 -0.13028,0.01406 -0.143612,0.06503 -0.0094,0.03577 -0.0386,0.06504 -0.06504,0.06504 -0.0264,0 -0.05568,0.02928 -0.06503,0.06503 -0.0094,0.03602 -0.04436,0.06504 -0.07825,0.06504 -0.03958,0 -0.06124,0.02303 -0.06124,0.06503 0,0.03782 -0.02167,0.06504 -0.05182,0.06504 -0.0285,0 -0.05947,0.02928 -0.06882,0.06503 -0.0094,0.03602 -0.04436,0.06504 -0.07825,0.06504 -0.03958,0 -0.06124,0.02304 -0.06124,0.06503 0,0.04943 -0.02167,0.06503 -0.09037,0.06503 -0.05307,0 -0.109718,0.02684 -0.137243,0.06503 -0.02577,0.03577 -0.06605,0.06503 -0.08949,0.06503 -0.02344,0 -0.05107,0.02201 -0.0614,0.04896 -0.01033,0.02694 -0.07572,0.05806 -0.145302,0.06919 -0.07177,0.01147 -0.126516,0.03851 -0.126516,0.06251 0,0.02723 -0.06652,0.05012 -0.186969,0.06432 -0.102832,0.01215 -0.219376,0.04246 -0.258986,0.06737 -0.09787,0.06161 -0.379864,0.05936 -0.431984,-0.0034 z"
         id="path2308" />
      <text
         xml:space="preserve"
         style="font-size:16.031px;font-family:'Kristen ITC';-inkscape-font-specification:'Kristen ITC';fill:#ffffff;fill-opacity:1;stroke:none;stroke-width:3.80198;stroke-linecap:round"
         x="70.721359"
         y="-26.298405"
         id="text4821-5"
         transform="scale(0.95821786,1.043604)"><tspan
           sodipodi:role="line"
           id="tspan4819-1"
           style="font-style:normal;font-variant:normal;font-weight:normal;font-stretch:normal;font-family:Impact;-inkscape-font-specification:Impact;fill:#ffffff;stroke-width:3.80198"
           x="70.721359"
           y="-26.298405">COMENTARIOS DE YOUTUBE</tspan></text>
    </g>
  </g>
</svg>
