<?xml version="1.0" encoding="UTF-8" standalone="no"?>
<!-- Created with Inkscape (http://www.inkscape.org/) -->

<svg
   width="198.49637mm"
   height="18.021181mm"
   viewBox="0 0 198.49637 18.021181"
   version="1.1"
   id="svg5112"
   inkscape:version="1.2.1 (9c6d41e410, 2022-07-14)"
   sodipodi:docname="Pestanha_tweeter.svg"
   xmlns:inkscape="http://www.inkscape.org/namespaces/inkscape"
   xmlns:sodipodi="http://sodipodi.sourceforge.net/DTD/sodipodi-0.dtd"
   xmlns="http://www.w3.org/2000/svg"
   xmlns:svg="http://www.w3.org/2000/svg">
  <sodipodi:namedview
     id="namedview5114"
     pagecolor="#ffffff"
     bordercolor="#000000"
     borderopacity="0.25"
     inkscape:showpageshadow="2"
     inkscape:pageopacity="0.0"
     inkscape:pagecheckerboard="0"
     inkscape:deskcolor="#d1d1d1"
     inkscape:document-units="mm"
     showgrid="false"
     inkscape:zoom="0.70199214"
     inkscape:cx="376.78484"
     inkscape:cy="294.87509"
     inkscape:window-width="1920"
     inkscape:window-height="986"
     inkscape:window-x="-11"
     inkscape:window-y="-11"
     inkscape:window-maximized="1"
     inkscape:current-layer="layer1" />
  <defs
     id="defs5109" />
  <g
     inkscape:label="Capa 1"
     inkscape:groupmode="layer"
     id="layer1"
     transform="translate(-5.7518167,-10.211492)">
    <g
       id="g5090"
       transform="translate(-5.751817,78.616913)">
      <path
         style="fill:#52a8e7;fill-opacity:1;stroke:none;stroke-width:0.0757111;stroke-linecap:round"
         d="m 17.456218,-50.413973 c -0.72361,-0.07483 -1.1164,-0.128025 -1.37004,-0.185537 -0.0878,-0.01992 -0.23743,-0.05057 -0.33253,-0.06815 -0.0951,-0.01759 -0.26271,-0.05569 -0.37244,-0.0847 -0.10974,-0.02901 -0.28931,-0.0762 -0.39905,-0.104878 -0.30388,-0.07941 -0.33644,-0.0896 -0.66507,-0.208334 -0.16826,-0.06079 -0.33586,-0.12016 -0.37243,-0.131929 -0.16326,-0.05253 -1.03989,-0.428521 -1.0965,-0.470298 -0.0188,-0.01385 -0.1,-0.05399 -0.18044,-0.08919 -0.0805,-0.0352 -0.16101,-0.07479 -0.17897,-0.08797 -0.018,-0.01319 -0.10175,-0.06036 -0.18621,-0.104839 -0.19052,-0.100338 -0.2092,-0.110978 -0.48017,-0.273609 -0.12109,-0.07268 -0.24679,-0.14801 -0.27932,-0.167392 -0.0561,-0.03343 -0.055,-0.03431 0.0207,-0.01711 0.0439,0.01 0.42697,0.02428 0.85128,0.03178 0.74345,0.01316 1.05811,-0.0021 1.54297,-0.07542 0.31126,-0.04698 0.92402,-0.180329 1.15722,-0.251837 0.19859,-0.0609 0.54187,-0.173911 0.59856,-0.197057 0.0293,-0.01197 0.0951,-0.03655 0.14632,-0.05466 0.0512,-0.01813 0.15522,-0.06123 0.23112,-0.09579 0.0759,-0.03458 0.14555,-0.06286 0.15475,-0.06286 0.0444,0 0.75179,-0.36243 1.00892,-0.516944 0.15993,-0.0961 0.30059,-0.174728 0.31259,-0.174728 0.012,0 0.0218,-0.01115 0.0218,-0.02479 0,-0.01364 0.0218,-0.03174 0.0485,-0.04021 0.0266,-0.0085 0.0727,-0.03793 0.10226,-0.06547 0.0296,-0.02755 0.0915,-0.06961 0.1377,-0.09349 0.0462,-0.02387 0.084,-0.05209 0.084,-0.06268 3e-5,-0.01059 0.0539,-0.05329 0.11972,-0.09487 0.0658,-0.04159 0.11966,-0.08545 0.11966,-0.09749 0,-0.01205 -0.0928,-0.02907 -0.20617,-0.03787 -0.94416,-0.0732 -1.72703,-0.375252 -2.48043,-0.95703 -0.095,-0.07332 -0.23861,-0.196504 -0.31924,-0.273738 -0.0806,-0.07723 -0.15557,-0.140587 -0.16654,-0.140782 -0.011,-1.52e-4 -0.0199,-0.01244 -0.0199,-0.02718 0,-0.01478 -0.0374,-0.06564 -0.083,-0.11306 -0.0456,-0.04742 -0.11381,-0.128115 -0.15145,-0.179325 -0.0376,-0.05121 -0.082,-0.105084 -0.0986,-0.119714 -0.0649,-0.05723 -0.31263,-0.464992 -0.42828,-0.704975 -0.14613,-0.303252 -0.15803,-0.332141 -0.23287,-0.565163 -0.0168,-0.05212 -0.0102,-0.05201 0.42227,0.0074 0.27839,0.03822 0.75589,0.01976 1.11731,-0.0432 0.13169,-0.02294 0.27833,-0.04805 0.32588,-0.05579 0.0991,-0.01614 0.11964,-0.08808 0.0252,-0.08808 -0.13495,0 -0.91274,-0.287045 -1.08263,-0.399548 -0.022,-0.01453 -0.0818,-0.0473 -0.13302,-0.07281 -0.0512,-0.02552 -0.0991,-0.05277 -0.10641,-0.06057 -0.007,-0.0078 -0.0791,-0.05562 -0.15961,-0.106285 -0.28752,-0.180999 -0.64064,-0.486375 -0.88341,-0.763963 -0.45505,-0.520312 -0.83292,-1.218542 -0.98987,-1.829064 -0.10872,-0.422912 -0.21657,-1.25833 -0.15931,-1.233971 0.0132,0.0056 0.12642,0.05987 0.25152,0.120528 0.46471,0.225334 1.06741,0.387115 1.56159,0.41917 0.20574,0.01334 0.28853,-0.01181 0.16643,-0.05056 -0.0292,-0.0093 -0.0681,-0.03102 -0.0865,-0.04834 -0.0184,-0.01733 -0.0933,-0.07923 -0.16642,-0.137549 -0.17561,-0.140034 -0.56765,-0.531502 -0.6664,-0.665422 -0.0431,-0.05851 -0.10004,-0.130298 -0.12643,-0.159519 -0.0264,-0.02922 -0.0859,-0.11303 -0.13214,-0.186242 -0.0463,-0.07321 -0.0913,-0.139097 -0.10012,-0.146412 -0.009,-0.0073 -0.0891,-0.162943 -0.17843,-0.345837 -0.22493,-0.46038 -0.34213,-0.821331 -0.4362,-1.343441 -0.0442,-0.245169 -0.0447,-1.14362 -10e-4,-1.370044 0.0761,-0.392339 0.096,-0.475649 0.16561,-0.691673 0.12121,-0.376273 0.35404,-0.878232 0.40698,-0.877433 0.0168,2.62e-4 0.0566,0.03791 0.0886,0.08367 0.19316,0.276452 1.21079,1.301065 1.56778,1.578544 0.0565,0.04389 0.15069,0.122572 0.20938,0.17484 0.0587,0.05227 0.15459,0.130013 0.21311,0.172767 0.0585,0.04275 0.1124,0.08466 0.11972,0.09313 0.0363,0.04202 0.74487,0.530268 0.76953,0.530268 0.0157,0 0.0286,0.0093 0.0286,0.02056 0,0.01131 0.0449,0.04411 0.0998,0.0729 0.0549,0.02879 0.10574,0.05979 0.11306,0.06888 0.0314,0.03899 0.69735,0.406336 1.05778,0.583462 0.70775,0.347806 0.80725,0.390139 1.50939,0.642215 0.27509,0.09876 0.33608,0.118565 0.55201,0.179248 0.0476,0.01337 0.15828,0.0447 0.24607,0.06963 0.0878,0.02493 0.2075,0.05644 0.26603,0.07003 0.0585,0.01359 0.14831,0.03489 0.19952,0.04736 0.0512,0.01246 0.13501,0.03068 0.18623,0.04049 0.0512,0.0098 0.16493,0.03403 0.25272,0.05384 0.43881,0.09901 1.39485,0.226422 1.69894,0.226422 0.17638,0 0.17656,-7.1e-5 0.17656,-0.07584 0,-0.04171 -0.0108,-0.110546 -0.024,-0.152966 -0.0561,-0.180639 -0.089,-0.816283 -0.0582,-1.127938 0.0361,-0.366065 0.0744,-0.609362 0.12143,-0.771482 0.0191,-0.06584 0.0554,-0.19154 0.0806,-0.279329 0.0449,-0.1561 0.24114,-0.638333 0.28179,-0.692281 0.0113,-0.01497 0.0577,-0.09797 0.10321,-0.184443 0.19005,-0.361288 0.56319,-0.81799 0.95832,-1.172931 0.30533,-0.274281 0.8117,-0.590685 1.20754,-0.754528 0.43852,-0.181513 0.63631,-0.234728 1.19575,-0.321731 0.58626,-0.09117 1.12692,-0.05476 1.81325,0.122103 0.31219,0.08045 0.90108,0.331709 1.06663,0.455095 0.0453,0.03375 0.0901,0.06135 0.0997,0.06135 0.0177,0 0.39242,0.261019 0.41658,0.29018 0.007,0.0088 0.0586,0.04984 0.11402,0.09115 0.0554,0.0413 0.16827,0.139997 0.25083,0.219321 0.1549,0.148841 0.1853,0.160464 0.3162,0.120939 0.0424,-0.01281 0.14297,-0.03726 0.22344,-0.05433 0.20227,-0.04291 0.86754,-0.245609 1.05081,-0.32017 0.0293,-0.01191 0.13701,-0.05461 0.23942,-0.09489 0.24208,-0.09522 0.79445,-0.361364 0.9999,-0.481777 0.0887,-0.052 0.16801,-0.08784 0.1762,-0.07965 0.0141,0.01409 -0.002,0.06533 -0.0916,0.282624 -0.0779,0.18995 -0.31074,0.638467 -0.33144,0.638467 -0.0118,0 -0.0214,0.01263 -0.0214,0.02806 0,0.03171 -0.18932,0.317062 -0.2518,0.379549 -0.0224,0.02246 -0.0409,0.04652 -0.0409,0.05347 0,0.03699 -0.45122,0.510607 -0.62535,0.656394 -0.0438,0.03666 -0.14547,0.114236 -0.22594,0.172374 -0.0805,0.05814 -0.16136,0.120129 -0.17973,0.13776 -0.0184,0.01763 -0.0573,0.03964 -0.0865,0.04889 -0.0292,0.0093 -0.053,0.02873 -0.053,0.04327 0,0.02738 0.11953,0.01782 0.41235,-0.03297 0.34753,-0.06028 0.43929,-0.08063 0.85128,-0.188851 0.17653,-0.04636 0.68619,-0.209444 0.77149,-0.246849 0.18763,-0.08228 0.44637,-0.174659 0.45765,-0.163386 0.0145,0.0145 -0.0312,0.104485 -0.0784,0.154358 -0.0184,0.01943 -0.0863,0.107156 -0.15088,0.194945 -0.14801,0.201133 -0.45929,0.578764 -0.59207,0.718275 -0.31651,0.332556 -0.68582,0.682986 -0.86004,0.816088 -0.0439,0.03353 -0.10375,0.0831 -0.13302,0.110144 -0.0292,0.02704 -0.12802,0.104363 -0.21947,0.171816 l -0.16626,0.122643 v 0.608938 c 0,0.754397 -0.0953,1.744284 -0.22729,2.360313 -0.0683,0.318593 -0.17498,0.783985 -0.19828,0.86459 -0.0127,0.0439 -0.0373,0.13368 -0.0546,0.199522 -0.081,0.307592 -0.34435,1.10077 -0.44164,1.33014 -0.0459,0.108185 -0.0794,0.188734 -0.11331,0.272678 -0.20207,0.499673 -0.5091,1.112978 -0.84899,1.695929 -0.081,0.139 -0.15715,0.256717 -0.16913,0.261592 -0.012,0.0048 -0.0218,0.02171 -0.0218,0.0374 0,0.0157 -0.0299,0.06776 -0.0665,0.115722 -0.0366,0.04796 -0.0665,0.09485 -0.0665,0.104208 0,0.01795 -0.50292,0.735159 -0.53152,0.758017 -0.009,0.0073 -0.0519,0.06119 -0.0951,0.119711 -0.0431,0.05853 -0.0904,0.119742 -0.10501,0.136032 -0.0146,0.0163 -0.0685,0.08154 -0.11971,0.145001 -0.0512,0.06346 -0.12005,0.143454 -0.15297,0.177763 -0.0329,0.0343 -0.0598,0.06662 -0.0598,0.0718 0,0.0177 -0.35824,0.400101 -0.62492,0.667061 -0.28184,0.282136 -0.38342,0.375754 -0.70752,0.652084 -0.20988,0.178934 -0.22678,0.192744 -0.42269,0.345356 -0.0655,0.05101 -0.134,0.106535 -0.15226,0.123393 -0.0183,0.01687 -0.0754,0.05674 -0.12702,0.08863 -0.0516,0.03189 -0.0938,0.06752 -0.0938,0.07919 0,0.01166 -0.0346,0.03556 -0.077,0.05311 -0.0423,0.01755 -0.0995,0.05192 -0.12696,0.07638 -0.1289,0.114825 -0.80061,0.530462 -1.07296,0.663927 -0.0512,0.02509 -0.0991,0.05311 -0.10641,0.06224 -0.0128,0.01597 -0.46823,0.238146 -0.77148,0.376334 -0.38978,0.177608 -1.13306,0.455105 -1.48311,0.553703 -0.0476,0.0134 -0.13135,0.03712 -0.18622,0.05272 -0.0549,0.01561 -0.14166,0.03811 -0.19286,0.05 -0.0512,0.01191 -0.18889,0.04597 -0.30594,0.07573 -0.11705,0.02976 -0.27867,0.06685 -0.35914,0.08242 -0.0805,0.01558 -0.2361,0.04603 -0.34584,0.06766 -0.30346,0.05984 -0.64732,0.106113 -1.31683,0.177205 -0.45308,0.04811 -1.7957,0.05436 -2.22134,0.01034 z"
         id="path371" />
      <text
         xml:space="preserve"
         style="font-size:16.031px;font-family:'Kristen ITC';-inkscape-font-specification:'Kristen ITC';fill:#ffffff;fill-opacity:1;stroke:none;stroke-width:3.80198;stroke-linecap:round"
         x="70.721359"
         y="-50.576717"
         id="text4821"
         transform="scale(0.95821786,1.043604)"><tspan
           sodipodi:role="line"
           id="tspan4819"
           style="font-style:normal;font-variant:normal;font-weight:normal;font-stretch:normal;font-family:Impact;-inkscape-font-specification:Impact;fill:#ffffff;stroke-width:3.80198"
           x="70.721359"
           y="-50.576717">CONTENIDO DE TWEETER</tspan></text>
    </g>
  </g>
</svg>
