<?xml version="1.0" encoding="UTF-8" standalone="no"?>
<!-- Created with Inkscape (http://www.inkscape.org/) -->

<svg
   width="179.10736mm"
   height="18.269339mm"
   viewBox="0 0 179.10736 18.269339"
   version="1.1"
   id="svg9127"
   inkscape:version="1.2.1 (9c6d41e410, 2022-07-14)"
   sodipodi:docname="Pestanha_noticias.svg"
   xmlns:inkscape="http://www.inkscape.org/namespaces/inkscape"
   xmlns:sodipodi="http://sodipodi.sourceforge.net/DTD/sodipodi-0.dtd"
   xmlns="http://www.w3.org/2000/svg"
   xmlns:svg="http://www.w3.org/2000/svg">
  <sodipodi:namedview
     id="namedview9129"
     pagecolor="#ffffff"
     bordercolor="#000000"
     borderopacity="0.25"
     inkscape:showpageshadow="2"
     inkscape:pageopacity="0.0"
     inkscape:pagecheckerboard="0"
     inkscape:deskcolor="#d1d1d1"
     inkscape:document-units="mm"
     showgrid="false"
     inkscape:zoom="0.70199214"
     inkscape:cx="339.74739"
     inkscape:cy="172.3666"
     inkscape:window-width="1920"
     inkscape:window-height="986"
     inkscape:window-x="-11"
     inkscape:window-y="-11"
     inkscape:window-maximized="1"
     inkscape:current-layer="layer1" />
  <defs
     id="defs9124" />
  <g
     inkscape:label="Capa 1"
     inkscape:groupmode="layer"
     id="layer1"
     transform="translate(-15.446322,-12.348831)">
    <g
       id="g5107"
       transform="translate(3.9426888,110.17145)">
      <g
         id="g4039"
         transform="matrix(0.45397365,0,0,0.45397365,-97.729164,-97.699506)">
        <path
           style="fill:#ec2828;fill-opacity:1;stroke:none;stroke-width:0.0948108;stroke-linecap:round"
           d="M 240.61484,26.579798 V 26.41323 h 0.11584 c 0.0891,0 0.12944,-0.02077 0.17489,-0.09014 0.056,-0.08543 0.0596,-0.449553 0.0688,-6.979258 l 0.01,-6.889123 h 1.45975 1.45974 l 0.0192,0.185528 c 0.0214,0.207629 0.0554,0.264928 0.17477,0.294889 0.0699,0.01754 0.0819,0.04009 0.0819,0.15318 0,0.132282 2.7e-4,0.132623 0.13186,0.132623 h 0.13185 l 0.01,0.258183 0.01,0.25818 0.12356,0.01027 0.12357,0.01027 0.01,0.256252 0.01,0.256254 0.1235,0.01027 0.12351,0.01027 0.01,0.238461 c 0.01,0.23723 0.0103,0.238619 0.11738,0.269221 0.0896,0.02561 0.1109,0.05087 0.12718,0.151051 0.048,0.295346 0.055,0.311819 0.14841,0.347069 0.0719,0.02715 0.0993,0.06569 0.12135,0.170654 0.0253,0.120362 0.0402,0.136731 0.13307,0.145756 l 0.10461,0.01016 0.0132,0.233315 c 0.0139,0.245608 0.0446,0.294561 0.18568,0.295521 0.0662,5.29e-4 0.075,0.01746 0.075,0.146257 0,0.276677 0.0292,0.349162 0.14507,0.360463 0.10306,0.01005 0.10453,0.01281 0.13779,0.260008 0.0332,0.246931 0.0348,0.249973 0.13733,0.259954 0.10023,0.0098 0.10438,0.01656 0.12383,0.202639 0.0271,0.25958 0.0451,0.296023 0.15835,0.320894 0.0736,0.01617 0.0972,0.04027 0.0972,0.09925 0,0.141918 0.0346,0.183304 0.15348,0.183304 h 0.11303 v 0.213817 c 0,0.284795 0.0165,0.319207 0.15348,0.319207 h 0.11303 v 0.226534 c 0,0.248999 0.0318,0.306488 0.16948,0.306488 0.0874,0 0.0898,0.0054 0.1028,0.235153 0.0139,0.246711 0.0446,0.296384 0.18378,0.297358 0.0601,5.29e-4 0.0748,0.02246 0.0833,0.125436 0.01,0.118144 0.0171,0.125489 0.13527,0.135268 l 0.12493,0.01034 v 0.24428 c 0,0.26076 0.0156,0.28472 0.18595,0.28472 0.078,0 0.0806,0.0078 0.0806,0.24946 v 0.24946 l 0.13188,0.02109 0.13187,0.02109 0.01,0.237488 0.01,0.237487 0.12493,0.01035 0.12493,0.01035 v 0.21215 c 0,0.234818 0.048,0.31685 0.1856,0.31685 0.0773,0 0.0809,0.0096 0.0809,0.214161 0,0.235995 0.0477,0.31886 0.18359,0.31886 0.0671,0 0.0804,0.01865 0.0892,0.124928 l 0.0104,0.124926 h 0.2332 0.23319 l 0.009,-2.120209 0.009,-2.12021 0.0821,-0.02061 c 0.0451,-0.01132 0.10052,-0.05415 0.12307,-0.09516 0.0313,-0.05687 0.0443,-0.768419 0.0549,-2.997857 l 0.0139,-2.923293 h 1.19536 1.19536 v 1.33338 1.333379 l -0.0813,0.0309 c -0.17718,0.06737 -0.16786,-0.240189 -0.17843,5.888998 l -0.01,5.705004 h -1.32904 -1.32904 l -0.0104,-0.124928 c -0.01,-0.118142 -0.0171,-0.125487 -0.13527,-0.135266 l -0.12492,-0.01035 v -0.244279 c 0,-0.26076 -0.0156,-0.284721 -0.18595,-0.284721 -0.0769,0 -0.0806,-0.0099 -0.0806,-0.214162 0,-0.235995 -0.0477,-0.31886 -0.1836,-0.31886 -0.0671,0 -0.0804,-0.01865 -0.0892,-0.124928 -0.009,-0.112683 -0.0205,-0.125913 -0.11366,-0.134996 -0.10273,-0.01 -0.10348,-0.01151 -0.13325,-0.266512 l -0.0299,-0.256439 -0.10827,-0.01045 c -0.0939,-0.009 -0.10827,-0.02283 -0.10827,-0.103622 0,-0.05125 -0.009,-0.162428 -0.0211,-0.247065 -0.0195,-0.142547 -0.0294,-0.155435 -0.13326,-0.174927 -0.095,-0.01783 -0.11216,-0.03502 -0.11216,-0.112625 0,-0.05037 -0.009,-0.159819 -0.0208,-0.243213 -0.019,-0.138795 -0.03,-0.15335 -0.12904,-0.171937 -0.10437,-0.01958 -0.10905,-0.02742 -0.13069,-0.218657 -0.0236,-0.208338 -0.0811,-0.299923 -0.18827,-0.299923 -0.0477,0 -0.0644,-0.02352 -0.0648,-0.09162 -8e-4,-0.127235 -0.0338,-0.167079 -0.14951,-0.180221 -0.0962,-0.01093 -0.10015,-0.01804 -0.10847,-0.194559 -0.0145,-0.306892 -0.027,-0.333139 -0.15857,-0.333139 h -0.11597 v -0.213815 c 0,-0.283038 -0.017,-0.319207 -0.14971,-0.319207 h -0.10928 l -0.0133,-0.235153 c -0.0139,-0.245552 -0.0448,-0.296371 -0.18104,-0.29736 -0.0614,-5.3e-4 -0.0729,-0.02625 -0.0916,-0.205312 -0.0241,-0.230973 -0.0617,-0.294907 -0.17347,-0.294907 -0.0671,0 -0.0786,-0.01865 -0.0875,-0.141584 -0.01,-0.137432 -0.0139,-0.141885 -0.13517,-0.151924 l -0.12492,-0.01034 v -0.244279 c 0,-0.260339 -0.0158,-0.284723 -0.1845,-0.284723 -0.0751,0 -0.0796,-0.01225 -0.0889,-0.241525 l -0.01,-0.241525 -0.12493,-0.03086 -0.12493,-0.03086 v -0.191283 c 0,-0.260938 -0.0185,-0.296675 -0.15348,-0.296675 h -0.11303 v -0.164399 c 0,-0.235016 -0.0455,-0.332742 -0.16602,-0.356854 -0.091,-0.0182 -0.10049,-0.03225 -0.10049,-0.149188 0,-0.128169 -0.001,-0.129093 -0.13186,-0.129093 h -0.13185 l -0.01,-0.25818 -0.01,-0.258183 -0.12356,-0.01027 -0.12356,-0.01027 -0.01,-0.256254 -0.01,-0.256252 -0.10447,-0.01016 c -0.11376,-0.01106 -0.14538,-0.08439 -0.14538,-0.33714 0,-0.146568 -0.0478,-0.202382 -0.17324,-0.202382 -0.0838,0 -0.0933,-0.01146 -0.0933,-0.113036 0,-0.07234 -0.019,-0.120313 -0.0527,-0.133254 -0.0916,-0.03516 -0.36541,-0.02188 -0.40703,0.01976 -0.0308,0.03075 -0.04,1.252601 -0.04,5.296905 v 5.256933 h -1.38253 -1.38252 z"
           id="path3865" />
        <path
           style="fill:#ec2828;fill-opacity:1;stroke:none;stroke-width:0.0948108;stroke-linecap:round"
           d="m 262.41045,26.990815 c -0.0229,-0.0092 -0.0416,-0.03572 -0.0416,-0.05883 0,-0.06889 -0.11547,-0.152299 -0.21083,-0.152299 -0.0874,0 -0.22225,0.101065 -0.22225,0.166568 0,0.01834 -0.0225,0.03331 -0.05,0.03331 -0.0275,0 -0.05,-0.02016 -0.05,-0.04481 0,-0.02463 -0.0315,-0.07337 -0.0701,-0.10827 -0.0677,-0.06125 -0.17278,-0.06378 -3.01491,-0.07266 l -2.94479,-0.0092 V 23.81305 20.881478 l 0.0839,-0.03189 c 0.0461,-0.01754 0.0996,-0.0733 0.11886,-0.123907 0.0233,-0.0614 0.0416,-1.452753 0.0547,-4.181489 l 0.0197,-4.089476 h 1.07737 c 0.88027,0 1.07737,0.0082 1.07737,0.04481 0,0.07446 0.11558,0.155078 0.22233,0.155078 0.0992,0 0.21075,-0.08511 0.21075,-0.160864 0,-0.06986 0.0675,-0.04111 0.0992,0.04224 0.017,0.04469 0.0606,0.09716 0.0969,0.116599 0.0452,0.02418 1.03823,0.03534 3.14439,0.03534 1.69311,0 3.37311,0.0099 3.73335,0.02193 l 0.65498,0.02193 v 1.044109 1.044107 l -3.80611,7.94e-4 c -3.46017,7.94e-4 -4.01308,0.01188 -4.08359,0.08234 -0.0123,0.01228 -0.0224,0.766903 -0.0224,1.676935 v 1.654603 l 3.17315,0.0085 3.17315,0.0085 v 0.07904 c 0,0.134615 0.0823,0.168148 0.4457,0.181575 l 0.33717,0.01246 -0.009,0.929339 -0.009,0.929341 -3.52193,5.29e-4 c -1.93706,2.64e-4 -3.54078,0.01249 -3.56382,0.02711 -0.0331,0.02101 -0.0401,0.464656 -0.0333,2.106594 l 0.009,2.079993 0.79226,0.0089 0.79225,0.0089 0.0317,0.08328 c 0.0174,0.0458 0.0666,0.09656 0.1093,0.112794 0.0427,0.01625 1.51211,0.04061 3.26535,0.05418 l 3.18772,0.02466 v 1.061241 1.061242 l -2.1071,-0.0026 c -1.15891,-0.0013 -2.12584,-0.01019 -2.14874,-0.01945 z"
           id="path3867" />
        <path
           style="fill:#ec2828;fill-opacity:1;stroke:none;stroke-width:0.0948108;stroke-linecap:round"
           d="m 272.44196,26.904609 c -0.0231,-0.08161 -0.0571,-0.116118 -0.13807,-0.140145 l -0.10748,-0.03187 v -0.473782 c 0,-0.5144 -0.0206,-0.578485 -0.18561,-0.578485 h -0.0809 v -0.379544 c 0,-0.407705 -0.005,-0.419987 -0.18508,-0.419987 h -0.0797 l -0.009,-0.508037 -0.009,-0.508037 -0.10353,-0.01008 -0.10353,-0.01008 -0.0238,-0.489082 c -0.0131,-0.268994 -0.0395,-0.508064 -0.0588,-0.531265 -0.0193,-0.0232 -0.0683,-0.04218 -0.10903,-0.04218 -0.0722,0 -0.0745,-0.0123 -0.0951,-0.486992 -0.0124,-0.286104 -0.0368,-0.505978 -0.0592,-0.533021 -0.021,-0.02532 -0.0738,-0.04603 -0.11741,-0.04603 -0.0774,0 -0.0793,-0.0068 -0.0825,-0.308155 -0.004,-0.415607 -0.0227,-0.472128 -0.15622,-0.485161 l -0.10697,-0.01045 -0.004,-0.405985 c -0.005,-0.53917 -0.019,-0.595614 -0.15442,-0.634457 l -0.10815,-0.03102 -0.003,-0.419934 c -0.004,-0.529111 -0.0181,-0.583433 -0.15257,-0.59667 l -0.1033,-0.01016 -0.0123,-0.476498 c -0.0132,-0.511115 -0.0365,-0.58587 -0.1823,-0.58587 -0.0785,0 -0.0792,-0.0032 -0.0792,-0.359791 0,-0.390041 -0.0193,-0.439743 -0.17083,-0.439743 h -0.0909 l -0.0107,-0.500986 c -0.0114,-0.534228 -0.021,-0.563427 -0.18563,-0.564546 -0.0742,-5.3e-4 -0.075,-0.0055 -0.0755,-0.475234 -2.6e-4,-0.261099 -0.0115,-0.49158 -0.025,-0.512181 -0.0135,-0.02061 -0.0732,-0.04803 -0.13275,-0.06095 l -0.10827,-0.0235 -0.004,-0.372133 c -0.005,-0.497896 -0.021,-0.560994 -0.1543,-0.61967 l -0.10827,-0.04765 v -0.341062 c 0,-0.187581 -0.009,-0.36477 -0.0202,-0.393753 -0.0129,-0.03373 -0.0609,-0.0527 -0.13326,-0.0527 -0.10966,0 -0.11303,-0.004 -0.11303,-0.133254 v -0.133255 h 1.32671 1.3267 l 0.0308,0.208211 c 0.0283,0.190947 0.0398,0.212164 0.1391,0.255865 l 0.10827,0.04765 v 0.487034 c 0,0.526494 0.0124,0.566986 0.17323,0.566986 h 0.0933 v 0.512802 c 0,0.55363 -1.3e-4,0.553244 0.18595,0.553244 h 0.0806 v 0.612227 c 0,0.651595 0.004,0.669711 0.16657,0.69215 l 0.0833,0.01151 0.009,0.613825 c 0.006,0.383897 0.0228,0.630354 0.0457,0.65795 0.0201,0.02426 0.07,0.04412 0.11089,0.04412 0.0725,0 0.0748,0.01193 0.0978,0.505177 0.0296,0.634955 0.0408,0.690248 0.15382,0.755097 0.0903,0.0518 0.0909,0.05458 0.11461,0.5369 0.0131,0.266655 0.0393,0.503566 0.0582,0.526471 0.0189,0.02291 0.0677,0.04164 0.10856,0.04164 0.0728,0 0.0746,0.01005 0.0935,0.524692 0.0214,0.582644 0.056,0.731272 0.17723,0.761704 0.0791,0.01984 0.08,0.02484 0.0836,0.457864 0.002,0.240789 0.0132,0.527746 0.025,0.63768 0.0196,0.183573 0.0299,0.203639 0.12584,0.245901 0.0948,0.04177 0.10645,0.06363 0.12603,0.23667 0.0288,0.254191 0.0733,0.309393 0.24969,0.309393 0.214,0 0.24332,-0.04922 0.26214,-0.439994 0.0154,-0.320453 0.0195,-0.335312 0.0909,-0.335312 0.15239,0 0.16549,-0.06195 0.17683,-0.835744 l 0.0106,-0.725729 0.10596,-0.02299 c 0.0583,-0.01265 0.11698,-0.03984 0.13044,-0.06044 0.0135,-0.02061 0.0247,-0.249414 0.025,-0.508473 l 5.3e-4,-0.471014 0.11258,-0.02111 c 0.14168,-0.02658 0.15393,-0.07885 0.15393,-0.656735 0,-0.40504 0.004,-0.428916 0.0659,-0.428916 0.0362,0 0.0917,-0.03949 0.12336,-0.08776 0.0485,-0.07401 0.0597,-0.196405 0.0715,-0.781071 l 0.014,-0.693311 0.10416,-0.01013 c 0.0958,-0.0093 0.10598,-0.0222 0.12668,-0.160044 0.0124,-0.08245 0.0236,-0.369366 0.025,-0.637585 l 0.002,-0.487672 0.11192,-0.02101 c 0.10946,-0.02053 0.11239,-0.02548 0.13326,-0.225134 0.0117,-0.112276 0.0213,-0.343926 0.0213,-0.514781 v -0.310618 l 0.10827,-0.02792 0.10827,-0.02792 0.0292,-0.633595 0.0292,-0.633595 0.10409,-0.0307 0.10409,-0.0307 0.009,-0.491379 0.009,-0.491379 h 1.46492 1.46492 l 0.003,0.408093 c 0.004,0.510233 0.0184,0.565656 0.15595,0.606539 l 0.10723,0.03188 v 0.557276 c 0,0.306504 0.0138,0.593624 0.0307,0.638048 0.0198,0.052 0.0663,0.08788 0.13054,0.100732 l 0.0998,0.01998 0.011,0.59599 c 0.0118,0.637569 0.0293,0.706004 0.17996,0.706004 h 0.0775 l 0.0101,0.767479 c 0.0108,0.823071 0.0123,0.8299 0.18497,0.831078 0.0749,5.29e-4 0.075,7.93e-4 0.075,0.597434 0,0.328308 0.009,0.620231 0.0199,0.648713 0.0109,0.02848 0.0709,0.06136 0.13325,0.07306 l 0.11338,0.02127 v 0.581475 c 0,0.337119 0.0145,0.608555 0.0345,0.645914 0.0222,0.04146 0.0697,0.06444 0.13325,0.06444 h 0.0988 v 0.626301 c 0,0.675031 0.008,0.706255 0.17323,0.706255 h 0.0933 v 0.644649 c 0,0.870373 0.0211,0.921105 0.38312,0.921105 0.35116,0 0.3831,-0.06569 0.3831,-0.787848 v -0.511394 h 0.0988 c 0.0636,0 0.11107,-0.02297 0.13326,-0.06444 0.02,-0.0374 0.0345,-0.309947 0.0345,-0.649621 0,-0.56918 0.002,-0.585182 0.0688,-0.585182 0.0378,0 0.0978,-0.01553 0.13326,-0.03449 0.0579,-0.031 0.0644,-0.07288 0.0644,-0.414178 0,-0.3521 0.005,-0.381252 0.0675,-0.401122 0.14042,-0.04457 0.18132,-0.170857 0.199,-0.614415 0.0159,-0.39801 0.0201,-0.418529 0.0892,-0.428361 0.14494,-0.02064 0.16005,-0.08318 0.17169,-0.710956 l 0.011,-0.594614 h 0.0981 c 0.13917,0 0.16305,-0.09024 0.16305,-0.616366 v -0.445457 l 0.10696,-0.01045 c 0.13874,-0.01355 0.15202,-0.06448 0.15622,-0.599111 l 0.003,-0.422106 0.10194,-0.02238 c 0.14179,-0.03114 0.16457,-0.115744 0.16457,-0.611148 V 14.56727 l 0.10827,-0.03187 c 0.13973,-0.04114 0.14932,-0.08918 0.1543,-0.773107 l 0.004,-0.541351 h 0.0988 c 0.10499,0 0.16774,-0.07396 0.16774,-0.197694 0,-0.06847 0.007,-0.06879 1.32423,-0.06443 0.72832,0.0024 1.27175,0.01365 1.20763,0.02498 -0.11098,0.01961 -0.11767,0.02863 -0.13867,0.187169 -0.0121,0.09161 -0.0234,0.271701 -0.025,0.400196 -0.003,0.20874 -0.0109,0.23713 -0.0777,0.266512 -0.11848,0.05209 -0.15921,0.185854 -0.18114,0.59504 l -0.0204,0.38173 -0.11165,0.02095 -0.11165,0.02096 v 0.375724 0.375725 l -0.12493,0.03086 -0.12492,0.03086 -0.009,0.506076 -0.009,0.506077 -0.12407,0.01029 -0.12407,0.01029 -0.009,0.391438 -0.009,0.391438 h -0.0922 c -0.15298,0 -0.17218,0.04902 -0.17218,0.439743 0,0.350755 -0.002,0.359804 -0.075,0.360301 -0.16374,0.0011 -0.17419,0.03183 -0.18565,0.545775 l -0.0107,0.482216 -0.10584,0.02297 c -0.0582,0.01262 -0.11686,0.03981 -0.13032,0.06041 -0.0135,0.02061 -0.0247,0.251082 -0.025,0.51218 l -5.3e-4,0.474724 h -0.0806 c -0.18065,0 -0.18595,0.01198 -0.18595,0.419986 v 0.379545 h -0.0933 c -0.15413,0 -0.17323,0.04849 -0.17323,0.439745 v 0.359789 h -0.0988 c -0.0636,0 -0.11107,0.02296 -0.13326,0.06444 -0.0191,0.03566 -0.0345,0.273722 -0.0345,0.533022 v 0.468585 h -0.11304 c -0.0723,0 -0.12031,0.01897 -0.13325,0.05269 -0.0111,0.02898 -0.0202,0.208878 -0.0202,0.399767 0,0.343233 -7.9e-4,0.34707 -0.0792,0.34707 -0.13248,0 -0.16399,0.07882 -0.18058,0.451786 -0.0148,0.333 -0.0192,0.350129 -0.1001,0.389671 -0.12274,0.06 -0.16773,0.226856 -0.1706,0.632682 -0.002,0.348271 -0.005,0.35814 -0.0775,0.358635 -0.16445,0.0011 -0.17415,0.03051 -0.18629,0.564573 l -0.0114,0.500962 h -0.11062 c -0.10309,0 -0.11215,0.0091 -0.13313,0.133255 l -0.0225,0.133254 h -1.30851 -1.30852 l -0.0155,-0.696788 c -0.0129,-0.580736 -0.0248,-0.711126 -0.0718,-0.782875 -0.031,-0.04735 -0.086,-0.08609 -0.12226,-0.08609 -0.0622,0 -0.0659,-0.02387 -0.0659,-0.428916 0,-0.577882 -0.0122,-0.630158 -0.15393,-0.656735 l -0.11258,-0.02111 v -0.560459 c 0,-0.643096 -0.0197,-0.731367 -0.16346,-0.731367 h -0.0985 l -0.0106,-0.744524 c -0.0114,-0.797973 -0.0234,-0.854543 -0.18126,-0.854543 h -0.0792 l -5.3e-4,-0.574665 c -2.6e-4,-0.316065 -0.009,-0.608025 -0.0203,-0.6488 -0.0138,-0.05161 -0.0542,-0.08057 -0.1328,-0.09532 l -0.11293,-0.02119 v -0.581478 c 0,-0.337116 -0.0145,-0.608554 -0.0345,-0.645911 -0.0219,-0.041 -0.0697,-0.06444 -0.13124,-0.06444 h -0.0968 l -0.0103,-0.634233 c -0.0111,-0.678521 -0.0159,-0.696658 -0.18525,-0.697812 l -0.075,-5.29e-4 -2.1e-4,-0.741233 c -1.9e-4,-0.799626 -0.0238,-0.96162 -0.15243,-1.045898 -0.0906,-0.05938 -0.50542,-0.09917 -0.56967,-0.05464 -0.0236,0.01638 -0.0488,0.175948 -0.0629,0.399039 -0.0231,0.364556 -0.0252,0.372187 -0.11022,0.393526 -0.0477,0.01196 -0.0978,0.03931 -0.1115,0.06076 -0.0136,0.02146 -0.025,0.311126 -0.0253,0.64372 l -5.3e-4,0.604719 -0.10013,0.03491 c -0.0585,0.0204 -0.11391,0.07114 -0.13326,0.122029 -0.0182,0.04792 -0.0331,0.324514 -0.0331,0.614661 v 0.527545 l -0.12493,0.02951 -0.12493,0.02951 -0.009,0.507831 -0.009,0.507833 -0.10025,0.02006 c -0.0551,0.01103 -0.11471,0.04707 -0.13238,0.08009 -0.0177,0.03302 -0.0321,0.321903 -0.0321,0.641961 v 0.581925 l -0.10014,0.0349 c -0.0585,0.0204 -0.1139,0.07114 -0.13325,0.122028 -0.0182,0.04792 -0.0331,0.3335 -0.0331,0.63463 0,0.545428 -2.6e-4,0.547513 -0.075,0.548021 -0.16871,0.0011 -0.17418,0.02111 -0.18523,0.675767 l -0.0103,0.612193 -0.12292,0.03037 -0.12292,0.03037 -0.009,0.505579 -0.009,0.505577 -0.10109,0.0222 c -0.0651,0.01429 -0.11224,0.05156 -0.1324,0.104571 -0.0172,0.0453 -0.0313,0.396209 -0.0313,0.779791 v 0.697423 h -0.11303 c -0.1194,0 -0.15348,0.04129 -0.15348,0.185949 v 0.08056 h -1.19448 -1.19448 z"
           id="path3869" />
        <path
           style="fill:#ec2828;fill-opacity:1;stroke:none;stroke-width:0.0948108;stroke-linecap:round"
           d="m 292.51618,27.52104 -0.45143,-0.01024 -0.0316,-0.107373 -0.0316,-0.107374 -0.37478,-0.0094 c -0.37013,-0.0093 -0.37478,-0.0104 -0.37478,-0.08889 0,-0.16932 -0.0241,-0.184861 -0.28674,-0.184861 h -0.24629 v -0.09328 c 0,-0.141621 -0.0559,-0.173231 -0.30648,-0.173231 H 290.1859 V 26.61312 26.479865 h -0.13326 c -0.12373,0 -0.13325,-0.0067 -0.13325,-0.09328 0,-0.118377 -0.0549,-0.17323 -0.17323,-0.17323 -0.0843,0 -0.0933,-0.01117 -0.0933,-0.115965 0,-0.09943 -0.0131,-0.118827 -0.0916,-0.136038 -0.16229,-0.03556 -0.17023,-0.04233 -0.18098,-0.154183 -0.009,-0.09733 -0.0232,-0.111398 -0.11885,-0.120621 -0.0826,-0.008 -0.10827,-0.02625 -0.10827,-0.07714 0,-0.119467 -0.0635,-0.195582 -0.16326,-0.195582 -0.0931,0 -0.0945,-0.003 -0.11125,-0.23698 -0.0177,-0.247438 -0.047,-0.294603 -0.18356,-0.295534 -0.0706,-5.29e-4 -0.0751,-0.0145 -0.0769,-0.242035 -0.001,-0.13284 -0.0125,-0.301491 -0.0254,-0.37478 -0.0211,-0.120079 -0.0341,-0.134289 -0.13134,-0.143695 l -0.10789,-0.01045 V 23.562778 23.01521 h 1.1779 1.1779 l 0.0214,0.204771 c 0.0118,0.112623 0.0214,0.283419 0.0214,0.379545 0,0.179568 0.0272,0.215218 0.16446,0.215218 0.0491,0 0.0624,0.03951 0.0786,0.233248 0.0234,0.279043 0.034,0.299773 0.15276,0.299773 0.0787,0 0.0966,0.01812 0.12297,0.124929 0.0269,0.108889 0.0448,0.126267 0.13913,0.135366 0.0826,0.008 0.10827,0.02625 0.10827,0.07715 0,0.119859 0.0635,0.195583 0.16403,0.195583 0.0817,0 0.098,0.01587 0.11633,0.113381 0.0254,0.135073 0.0633,0.153128 0.32201,0.153128 0.1821,0 0.1972,0.0057 0.19767,0.07496 10e-4,0.157094 0.0408,0.174202 0.43273,0.186212 l 0.36915,0.01132 0.0195,0.09739 c 0.0128,0.06386 0.0438,0.102254 0.0902,0.111519 0.14613,0.02921 1.08635,0.04362 1.5032,0.02305 l 0.43308,-0.02138 0.0319,-0.10827 0.0319,-0.10827 0.35124,-0.0024 c 0.19317,-0.0013 0.41815,-0.01259 0.49993,-0.02498 0.13169,-0.01995 0.15225,-0.0349 0.17972,-0.130786 0.0233,-0.08131 0.0499,-0.10827 0.10675,-0.10827 0.13967,0 0.18114,-0.03514 0.18114,-0.153477 0,-0.111279 0.002,-0.113033 0.14575,-0.113033 0.0802,0 0.19272,-0.0094 0.25013,-0.02088 0.0897,-0.01794 0.10722,-0.03856 0.12447,-0.14649 0.0166,-0.103626 0.0362,-0.128836 0.11212,-0.144018 0.0506,-0.01013 0.10459,-0.04539 0.11996,-0.07838 0.043,-0.09239 0.0582,-1.775507 0.017,-1.883907 -0.0272,-0.0715 -0.0565,-0.09161 -0.13361,-0.09161 -0.0901,0 -0.0997,-0.01098 -0.1091,-0.124928 -0.01,-0.118142 -0.0171,-0.12549 -0.13526,-0.135266 -0.11145,-0.0092 -0.12493,-0.02019 -0.12493,-0.101608 0,-0.139515 -0.0567,-0.171222 -0.30648,-0.171222 -0.20673,0 -0.22654,-0.006 -0.22654,-0.06882 0,-0.03785 -0.0155,-0.09782 -0.0345,-0.133257 -0.0309,-0.05769 -0.0727,-0.06444 -0.39976,-0.06444 -0.36456,0 -0.36528,-1.61e-4 -0.36528,-0.08091 0,-0.165338 -0.0637,-0.185605 -0.58337,-0.185605 h -0.47866 l -0.0103,-0.124928 -0.0104,-0.124926 -0.40591,-0.0093 c -0.39064,-0.009 -0.4063,-0.01212 -0.41642,-0.08328 -0.0195,-0.136922 -0.1979,-0.190439 -0.63515,-0.190497 -0.38994,-6.6e-5 -0.39144,-2.65e-4 -0.39144,-0.07926 0,-0.144521 -0.0754,-0.168574 -0.57076,-0.182179 l -0.46197,-0.01267 v -0.109255 c 0,-0.132731 -0.0362,-0.149696 -0.3192,-0.149696 h -0.21382 v -0.09877 c 0,-0.129006 -0.0764,-0.167741 -0.33095,-0.167741 -0.1872,0 -0.20211,-0.0055 -0.20258,-0.07496 -10e-4,-0.136554 -0.0481,-0.165846 -0.29554,-0.183552 -0.23395,-0.01675 -0.23698,-0.01815 -0.23698,-0.11125 0,-0.10382 -0.0767,-0.163263 -0.21073,-0.163263 -0.0601,0 -0.0876,-0.02273 -0.10331,-0.08543 -0.0137,-0.05474 -0.0569,-0.09779 -0.12021,-0.119858 -0.0714,-0.0249 -0.0988,-0.05596 -0.0988,-0.112078 0,-0.09308 -0.0813,-0.182345 -0.16602,-0.182345 -0.0453,0 -0.067,-0.03392 -0.0833,-0.129996 -0.0195,-0.115572 -0.0346,-0.132371 -0.13618,-0.151421 -0.1092,-0.02048 -0.11423,-0.02777 -0.11423,-0.165666 0,-0.07933 -0.009,-0.191087 -0.0208,-0.248346 -0.0184,-0.09192 -0.034,-0.104105 -0.13325,-0.104105 h -0.11244 v -1.332556 -1.332555 l 0.075,-5.29e-4 c 0.14127,-0.0011 0.1718,-0.04982 0.18579,-0.297357 0.0121,-0.21363 0.0198,-0.235202 0.0845,-0.235665 0.12799,-7.94e-4 0.15688,-0.04852 0.1773,-0.292105 0.0198,-0.23577 0.0204,-0.236932 0.12345,-0.246973 0.0887,-0.0087 0.10795,-0.02775 0.13403,-0.133313 0.026,-0.105304 0.0454,-0.124682 0.13326,-0.133257 0.0923,-0.009 0.10385,-0.02262 0.11303,-0.133062 0.01,-0.115591 0.0177,-0.123645 0.13326,-0.133255 0.11597,-0.0096 0.12362,-0.01738 0.13337,-0.135151 0.01,-0.121473 0.014,-0.124929 0.14158,-0.124929 0.13091,0 0.13125,-2.64e-4 0.13125,-0.133254 v -0.133258 h 0.21416 c 0.23693,0 0.31886,-0.04769 0.31886,-0.185605 0,-0.07792 0.009,-0.0809 0.23202,-0.0809 0.24694,0 0.301,-0.0355 0.301,-0.197694 0,-0.06504 0.0188,-0.06885 0.34147,-0.06933 0.18781,-2.65e-4 0.35901,-0.01167 0.38047,-0.02532 0.0215,-0.01365 0.0487,-0.06361 0.0606,-0.111035 0.0216,-0.08605 0.0225,-0.08627 0.4743,-0.107937 0.24896,-0.01193 0.55426,-0.02172 0.67842,-0.02172 0.27984,0 0.38195,-0.03675 0.40974,-0.147484 l 0.0215,-0.08571 h 0.41579 c 0.38845,0 0.41579,0.0042 0.41579,0.06425 0,0.146708 0.0586,0.159787 0.83134,0.185554 l 0.73452,0.0245 0.0269,0.104375 c 0.026,0.100836 0.0336,0.10467 0.22482,0.112954 0.2837,0.0123 0.33785,0.03047 0.36058,0.12106 0.0268,0.106979 0.17035,0.153532 0.47324,0.153532 h 0.24287 l 0.0103,0.124926 c 0.01,0.117761 0.0174,0.125515 0.13337,0.135154 0.11559,0.0096 0.12365,0.01765 0.13326,0.133255 0.01,0.115972 0.0174,0.123624 0.13515,0.133369 0.10628,0.0088 0.12493,0.02212 0.12493,0.08923 0,0.101677 0.0828,0.183597 0.1856,0.183597 0.0635,0 0.0809,0.01744 0.0809,0.0809 0,0.1035 0.0821,0.185605 0.1856,0.185605 0.0664,0 0.0809,0.01672 0.0809,0.09328 0,0.117811 0.0548,0.173234 0.17122,0.173234 0.0814,0 0.0924,0.01349 0.10161,0.124925 0.01,0.118145 0.0171,0.125489 0.13526,0.135268 l 0.12493,0.01035 v 0.230015 c 0,0.244766 0.0358,0.298987 0.19769,0.298987 0.0647,0 0.0688,0.01884 0.0688,0.31867 0,0.371059 0.0287,0.447548 0.16774,0.447548 h 0.0988 v 0.416425 0.416422 h -1.1993 -1.1993 v -0.202073 c 0,-0.254524 -0.0387,-0.330948 -0.16774,-0.330948 h -0.0988 V 16.19265 c 0,-0.249735 -0.0317,-0.306488 -0.17122,-0.306488 -0.0814,0 -0.0924,-0.01349 -0.10161,-0.124928 -0.01,-0.117761 -0.0174,-0.125513 -0.13337,-0.135152 -0.11559,-0.0096 -0.12364,-0.01767 -0.13325,-0.133258 -0.01,-0.115969 -0.0174,-0.123621 -0.13516,-0.133368 -0.1173,-0.0097 -0.12492,-0.01712 -0.12492,-0.121362 0,-0.134697 -0.0353,-0.151466 -0.31921,-0.151466 h -0.21382 v -0.113035 c 0,-0.07234 -0.019,-0.120314 -0.0527,-0.133255 -0.029,-0.01111 -0.20888,-0.02021 -0.39977,-0.02021 -0.33756,0 -0.34708,-0.0021 -0.34758,-0.07496 -10e-4,-0.175368 0.001,-0.174897 -0.91557,-0.174897 -0.91684,0 -0.91448,-5.29e-4 -0.91567,0.174897 -5.3e-4,0.07315 -0.009,0.07496 -0.36579,0.07496 -0.32705,0 -0.36889,0.0067 -0.39977,0.06444 -0.019,0.03544 -0.0345,0.09541 -0.0345,0.133255 0,0.0618 -0.0201,0.06882 -0.19716,0.06882 -0.23827,0 -0.30255,0.02141 -0.30255,0.10078 0,0.107796 -0.039,0.165722 -0.11184,0.16624 -0.12317,7.94e-4 -0.14837,0.04314 -0.17264,0.289409 -0.0234,0.23799 -0.0243,0.239562 -0.1276,0.249629 -0.0853,0.0083 -0.10781,0.02812 -0.12518,0.110072 -0.028,0.132218 -0.034,1.164876 -0.008,1.324229 0.0189,0.114417 0.0297,0.124926 0.12863,0.124926 0.10021,0 0.10951,0.0096 0.12929,0.133255 0.0199,0.124801 0.0284,0.133257 0.13325,0.133257 0.10485,0 0.1133,0.0084 0.13326,0.133255 l 0.0213,0.133255 h 0.24946 c 0.24163,0 0.24946,0.0026 0.24946,0.08056 0,0.170524 0.0238,0.185952 0.28673,0.185952 0.22669,0 0.24629,0.0055 0.24629,0.06882 0,0.03785 0.0155,0.09781 0.0345,0.133255 0.0308,0.05763 0.0727,0.06444 0.39606,0.06444 h 0.36157 l 0.0212,0.112927 c 0.0271,0.144214 0.0601,0.152559 0.60605,0.153127 l 0.43659,5.3e-4 0.0307,0.106973 c 0.0407,0.141989 0.0888,0.152236 0.73354,0.156216 l 0.53804,0.0033 0.0295,0.124926 0.0295,0.124928 0.37359,0.0094 c 0.35031,0.0088 0.37359,0.01363 0.37359,0.07714 0,0.163745 0.0531,0.196601 0.31766,0.196601 0.23963,0 0.24868,0.0029 0.24868,0.07921 0,0.130318 0.0791,0.163124 0.43435,0.180231 l 0.33187,0.01598 v 0.08883 c 0,0.136957 0.0578,0.168778 0.30649,0.168778 h 0.22653 v 0.113035 c 0,0.118941 0.0414,0.153477 0.18384,0.153477 0.0642,0 0.0804,0.01971 0.0889,0.10827 0.009,0.09437 0.0265,0.112231 0.13537,0.139131 0.0955,0.02358 0.12492,0.04755 0.12492,0.101606 0,0.09627 0.0619,0.150701 0.17122,0.150701 0.0813,0 0.0924,0.01357 0.10161,0.123862 0.009,0.112562 0.0216,0.126511 0.13387,0.152892 l 0.12353,0.02903 0.01,0.238545 0.01,0.238549 0.1166,0.01667 0.1166,0.01667 0.0167,0.71092 c 0.0164,0.697505 0.0181,0.712118 0.0953,0.774546 0.0433,0.035 0.12196,0.06363 0.17489,0.06363 0.14313,0 0.11651,0.04739 -0.0519,0.09244 -0.13102,0.03504 -0.15222,0.05417 -0.18304,0.16515 -0.0192,0.06903 -0.0349,0.405699 -0.035,0.748141 l -2e-4,0.622623 -0.12493,0.01034 -0.12492,0.01035 -0.01,0.256254 -0.01,0.256252 -0.12356,0.01027 c -0.1162,0.0097 -0.12417,0.0176 -0.13378,0.133289 -0.01,0.115591 -0.0177,0.123645 -0.13326,0.133255 -0.11597,0.0096 -0.12362,0.01738 -0.13337,0.135152 -0.009,0.111445 -0.0202,0.124928 -0.10161,0.124928 -0.11644,0 -0.17122,0.05542 -0.17122,0.173233 0,0.08383 -0.0115,0.09328 -0.11303,0.09328 -0.11896,0 -0.15348,0.04136 -0.15348,0.183938 0,0.06672 -0.0188,0.08011 -0.12493,0.08889 -0.11814,0.0098 -0.12548,0.01712 -0.13526,0.135265 l -0.0104,0.124929 h -0.24428 c -0.26074,0 -0.2847,0.01564 -0.2847,0.185949 0,0.07794 -0.008,0.08056 -0.24629,0.08056 -0.26263,0 -0.28673,0.01553 -0.28673,0.184862 0,0.07845 -0.005,0.07959 -0.37273,0.08889 l -0.37272,0.0094 -0.0266,0.10296 -0.0266,0.10296 -0.70539,0.02196 c -0.66898,0.02082 -2.0748,0.0195 -3.06162,-0.0029 z"
           id="path3871" />
        <path
           style="fill:#ffffff;fill-opacity:1;stroke:none;stroke-width:0.189622;stroke-linecap:round"
           d="m 271.43018,8.8475027 c 0,-0.078412 0.0525,-0.180922 0.1166,-0.2278009 0.10854,-0.079338 0.11816,-0.3806428 0.13912,-4.3548088 0.0219,-4.15178605 0.026,-4.26957061 0.14992,-4.26957061 0.083,0 0.12739,0.04646083 0.12739,0.13325475 0,0.0888365 0.0444,0.13325474 0.13325,0.13325474 0.0888,0 0.13326,0.0444182 0.13326,0.13325475 0,0.0888392 0.0444,0.1332574 0.13325,0.1332574 0.0775,0 0.13326,0.0444182 0.13326,0.10617993 0,0.0583962 0.06,0.12185915 0.13326,0.14102556 0.0733,0.0191558 0.13325,0.0791316 0.13325,0.13325475 0,0.0541258 0.06,0.11409093 0.13326,0.13325473 0.0737,0.019288 0.13325,0.090882 0.13325,0.1603322 0,0.081066 0.0472,0.1254866 0.13326,0.1254866 0.0888,0 0.13325,0.044418 0.13325,0.1332548 0,0.088836 0.0444,0.1332547 0.13326,0.1332547 0.0888,0 0.13325,0.044418 0.13325,0.1332548 0,0.088839 0.0444,0.1332573 0.13326,0.1332573 0.0888,0 0.13326,0.044418 0.13326,0.1332548 0,0.088836 0.0444,0.1332547 0.13325,0.1332547 0.0888,0 0.13326,0.044418 0.13326,0.1332574 0,0.088836 0.0444,0.1332548 0.13325,0.1332548 0.0888,0 0.13326,0.044418 0.13326,0.1332547 0,0.088836 0.0444,0.1332548 0.13325,0.1332548 0.0888,0 0.13326,0.044421 0.13326,0.1332574 0,0.07329 0.0418,0.1332547 0.0928,0.1332547 0.10188,0 0.1737,0.1400043 0.1737,0.3385873 0,0.070295 0.0457,0.127807 0.10159,0.127807 0.0559,0 0.13009,0.074956 0.16492,0.1665684 0.0348,0.091615 0.092,0.1665711 0.12712,0.1665711 0.0351,0 0.0828,0.059965 0.10608,0.1332548 0.0233,0.07329 0.0817,0.1332547 0.12997,0.1332547 0.0482,0 0.10336,0.059965 0.12253,0.1332574 0.0192,0.07329 0.0793,0.1332547 0.13361,0.1332547 0.0601,0 0.11588,0.091242 0.14251,0.2331985 0.0262,0.1395889 0.0827,0.2331958 0.14068,0.2331958 0.0533,0 0.0969,0.043918 0.0969,0.097597 0,0.053679 0.06,0.1296908 0.13325,0.1689153 0.0733,0.039222 0.13326,0.1132125 0.13326,0.1644226 0,0.05121 0.06,0.112141 0.13325,0.1354005 0.0946,0.03002 0.13326,0.1008116 0.13326,0.2439247 0,0.1455976 0.037,0.2113174 0.13325,0.2364793 0.0738,0.019288 0.13326,0.090882 0.13326,0.1603322 0,0.081066 0.0472,0.1254839 0.13326,0.1254839 0.10853,0 0.13325,0.044418 0.13325,0.2394347 0,0.1834012 0.0312,0.2475892 0.13326,0.274283 0.0738,0.019288 0.13325,0.090882 0.13325,0.1603295 0,0.081068 0.0472,0.1254866 0.13326,0.1254866 0.11104,0 0.13325,0.044418 0.13325,0.2665095 0,0.2220939 0.0222,0.2665122 0.13326,0.2665122 0.10853,0 0.13325,0.044418 0.13325,0.2394346 0,0.1834013 0.0312,0.2475892 0.13326,0.274283 0.10103,0.026432 0.13325,0.090882 0.13325,0.2665095 0,0.1756304 0.0322,0.2400935 0.13326,0.2665121 0.0758,0.019817 0.13326,0.090882 0.13326,0.1647111 0,0.071427 0.031,0.1878594 0.069,0.2587413 0.0678,0.1266825 0.007,0.1288733 -3.56459,0.1288733 h -3.63356 z"
           id="path3873" />
        <path
           style="fill:#ffffff;fill-opacity:1;stroke:none;stroke-width:0.189622;stroke-linecap:round"
           d="m 280.95704,8.7735279 c -0.001,-0.3094673 -0.0678,-0.5163635 -0.16601,-0.5163635 -0.0466,0 -0.10474,-0.1065159 -0.12916,-0.2366989 -0.0244,-0.1301856 -0.0877,-0.2533226 -0.14067,-0.27364 -0.053,-0.02032 -0.0963,-0.091678 -0.0963,-0.158578 0,-0.0669 -0.06,-0.1406684 -0.13325,-0.1639306 -0.0992,-0.031472 -0.13326,-0.1008089 -0.13326,-0.2710021 0,-0.1842876 -0.0259,-0.2287058 -0.13325,-0.2287058 -0.11105,0 -0.13326,-0.044418 -0.13326,-0.2665122 0,-0.2220912 -0.0222,-0.2665095 -0.13325,-0.2665095 -0.10854,0 -0.13326,-0.044418 -0.13326,-0.2394346 0,-0.1834013 -0.0312,-0.2475918 -0.13326,-0.274283 -0.0738,-0.019288 -0.13325,-0.090882 -0.13325,-0.1603322 0,-0.081066 -0.0472,-0.1254839 -0.13326,-0.1254839 -0.10853,0 -0.13325,-0.044418 -0.13325,-0.2394347 0,-0.1834012 -0.0312,-0.2475892 -0.13326,-0.274283 -0.0737,-0.019288 -0.13325,-0.090882 -0.13325,-0.1603322 0,-0.081066 -0.0472,-0.1254839 -0.13326,-0.1254839 -0.10853,0 -0.13325,-0.044418 -0.13325,-0.2394347 0,-0.1834012 -0.0312,-0.2475891 -0.13326,-0.2742803 -0.0738,-0.019288 -0.13326,-0.090882 -0.13326,-0.1603322 0,-0.081066 -0.0472,-0.1254866 -0.13325,-0.1254866 -0.10356,0 -0.13326,-0.044418 -0.13326,-0.1993186 0,-0.1271587 -0.0482,-0.229444 -0.13325,-0.2825379 -0.0733,-0.04577 -0.13326,-0.135972 -0.13326,-0.2004483 0,-0.072808 -0.0505,-0.1172263 -0.13325,-0.1172263 -0.0888,0 -0.13326,-0.044418 -0.13326,-0.1332574 0,-0.088837 -0.0444,-0.1332548 -0.13325,-0.1332548 -0.0888,0 -0.13326,-0.044418 -0.13326,-0.1332547 0,-0.088836 -0.0444,-0.1332574 -0.13325,-0.1332574 -0.10854,0 -0.13326,-0.044418 -0.13326,-0.2394347 0,-0.1833986 -0.0312,-0.2475891 -0.13326,-0.2742803 -0.0737,-0.019288 -0.13325,-0.090882 -0.13325,-0.1603322 0,-0.081066 -0.0472,-0.125484 -0.13326,-0.125484 -0.0888,0 -0.13325,-0.044418 -0.13325,-0.1332573 0,-0.088836 -0.0444,-0.1332548 -0.13326,-0.1332548 -0.0888,0 -0.13325,-0.044418 -0.13325,-0.1332547 0,-0.088836 -0.0444,-0.1332548 -0.13326,-0.1332548 -0.0888,0 -0.13325,-0.044421 -0.13325,-0.1332574 0,-0.088836 -0.0444,-0.1332547 -0.13326,-0.1332547 -0.0888,0 -0.13325,-0.044418 -0.13325,-0.13325478 0,-0.0888391 -0.0444,-0.1332574 -0.13326,-0.1332574 -0.10454,0 -0.13326,-0.0444182 -0.13326,-0.20612099 0,-0.1500849 -0.0362,-0.21559309 -0.13325,-0.24096663 -0.0733,-0.0191558 -0.13326,-0.088818 -0.13326,-0.1547786 0,-0.0659633 -0.0375,-0.13505656 -0.0833,-0.15354035 -0.0458,-0.01849438 0.0769,-0.03597275 0.27275,-0.0388646463 0.30242,-0.004471454 0.36128,0.0148166663 0.39088,0.1279948363 0.0295,0.11279451 0.0909,0.13325474 0.39976,0.13325474 0.30889,0 0.37027,0.0204523 0.39977,0.13325475 0.0298,0.11382375 0.0909,0.1332574 0.41907,0.1332574 0.32819,0 0.38931,0.0194204 0.41907,0.13325474 0.029,0.11073871 0.0909,0.13325475 0.36646,0.13325475 0.27557,0 0.33749,0.022516 0.36645,0.1332574 0.0264,0.10102318 0.0909,0.13325478 0.26651,0.13325478 0.17563,0 0.24009,0.032231 0.26651,0.1332547 0.0262,0.1000152 0.0909,0.1332574 0.25948,0.1332574 0.14217,0 0.2665,0.048911 0.33872,0.1332548 0.0828,0.096689 0.19655,0.1332547 0.41458,0.1332547 0.25605,0 0.30047,0.019712 0.30047,0.1332548 0,0.089524 0.0444,0.1332573 0.13535,0.1332573 0.0744,0 0.15229,0.044156 0.173,0.098129 0.0207,0.053972 0.13694,0.1167553 0.25829,0.1395201 0.13887,0.026061 0.23294,0.08845 0.25384,0.1683808 0.0249,0.095184 0.0932,0.1269921 0.27264,0.1269921 0.19502,0 0.23944,0.024712 0.23944,0.1332547 0,0.1110457 0.0444,0.1332548 0.26651,0.1332548 0.22209,0 0.26651,0.022199 0.26651,0.1332574 0,0.088837 0.0444,0.1332547 0.13325,0.1332547 0.0888,0 0.13326,0.044418 0.13326,0.1332548 0,0.086088 0.0444,0.1332574 0.12548,0.1332574 0.0695,0 0.14105,0.059502 0.16034,0.1332547 0.0267,0.102071 0.0909,0.1332548 0.27428,0.1332548 0.19501,0 0.23943,0.024712 0.23943,0.1332574 0,0.086085 0.0444,0.1332547 0.12549,0.1332547 0.0694,0 0.14104,0.059505 0.16033,0.1332548 0.0192,0.07329 0.0791,0.1332547 0.13326,0.1332547 0.0541,0 0.11408,0.059965 0.13325,0.1332574 0.0192,0.07329 0.0826,0.1332547 0.14103,0.1332547 0.0584,0 0.10618,0.041638 0.10618,0.092528 0,0.053533 0.10138,0.1115457 0.24058,0.13766 0.15828,0.029694 0.25212,0.089215 0.27428,0.1739847 0.0185,0.070869 0.0578,0.1288495 0.0873,0.1288495 0.0699,0 0.66376,0.5938917 0.66376,0.6637681 0,0.029477 0.06,0.069278 0.13326,0.088442 0.0733,0.019156 0.13326,0.082629 0.13326,0.1410282 0,0.061759 0.0557,0.1061773 0.13325,0.1061773 0.0888,0 0.13326,0.044418 0.13326,0.1332574 0,0.086794 0.0444,0.1332547 0.1274,0.1332547 0.0967,0 0.13824,0.064201 0.17242,0.2665122 0.0264,0.1564772 0.082,0.2665095 0.13462,0.2665095 0.0493,0 0.10863,0.059965 0.13189,0.1332547 0.0233,0.073292 0.0852,0.1332574 0.13775,0.1332574 0.0525,0 0.0954,0.047781 0.0954,0.1061799 0,0.058396 0.06,0.1218592 0.13325,0.1410256 0.0738,0.019288 0.13326,0.090882 0.13326,0.1603322 0,0.0786 0.047,0.125484 0.12584,0.125484 0.0914,0 0.13799,0.064741 0.17025,0.2366988 0.0244,0.130183 0.0848,0.2521876 0.1341,0.2711186 0.0493,0.018944 0.10484,0.092313 0.12334,0.163068 0.0185,0.070757 0.0814,0.1286483 0.13983,0.1286483 0.0618,0 0.10617,0.055745 0.10617,0.1332548 0,0.086376 0.0444,0.1332547 0.12626,0.1332547 0.0986,0 0.13182,0.058285 0.15167,0.2665122 l 0.0254,0.2665095 h -3.31649 -3.31649 z"
           id="path3875" />
        <path
           style="fill:#ffffff;fill-opacity:1;stroke:none;stroke-width:0.189622;stroke-linecap:round"
           d="m 264.73409,8.8885132 c -0.054,-0.083741 -0.27873,-0.1112229 -1.18264,-0.1445975 -0.99685,-0.036809 -1.11601,-0.053496 -1.11601,-0.1562682 0,-0.063283 0.06,-0.1307386 0.13325,-0.149905 0.10103,-0.026432 0.13326,-0.090882 0.13326,-0.2665121 0,-0.1756278 0.0322,-0.2400909 0.13325,-0.2665095 0.10103,-0.026432 0.13326,-0.090882 0.13326,-0.2665122 0,-0.1756304 0.0322,-0.2400934 0.13326,-0.2665121 0.0733,-0.019156 0.13325,-0.082627 0.13325,-0.1410256 0,-0.058399 0.0446,-0.1061799 0.0992,-0.1061799 0.0641,0 0.11419,-0.094062 0.14177,-0.2665095 0.0262,-0.1641025 0.0785,-0.2665121 0.13613,-0.2665121 0.0514,0 0.1128,-0.052469 0.13637,-0.1165993 0.0236,-0.064127 0.0814,-0.1398984 0.12849,-0.1683808 0.0471,-0.02848 0.10516,-0.1559057 0.12904,-0.2831677 0.0239,-0.1272619 0.083,-0.231386 0.13144,-0.231386 0.0484,0 0.10707,-0.059965 0.13033,-0.1332548 0.0233,-0.07329 0.0853,-0.1332547 0.13775,-0.1332547 0.0575,0 0.0955,-0.066495 0.0955,-0.167222 0,-0.091972 0.06,-0.2185643 0.13325,-0.2813182 0.0733,-0.062754 0.13326,-0.1524079 0.13326,-0.1992312 0,-0.046823 0.0478,-0.085135 0.10618,-0.085135 0.0584,0 0.1216,-0.05897 0.14045,-0.1310481 0.0188,-0.072078 0.091,-0.1490531 0.16033,-0.1710585 0.0693,-0.022013 0.12606,-0.094459 0.12606,-0.1610068 0,-0.066545 0.06,-0.1366759 0.13326,-0.1558423 0.097,-0.025373 0.13325,-0.090879 0.13325,-0.2409666 0,-0.1617027 0.0287,-0.206121 0.13326,-0.206121 0.0888,0 0.13325,-0.044418 0.13325,-0.1332547 0,-0.088839 0.0444,-0.1332574 0.13326,-0.1332574 0.0888,0 0.13325,-0.044418 0.13325,-0.1332548 0,-0.088837 0.0444,-0.1332547 0.13326,-0.1332547 0.0861,0 0.13326,-0.044418 0.13326,-0.1254866 0,-0.06945 0.0595,-0.1410441 0.13325,-0.1603296 0.0733,-0.019156 0.13326,-0.079132 0.13326,-0.1332574 0,-0.054123 0.06,-0.1140883 0.13325,-0.1332547 0.0733,-0.019156 0.13326,-0.080608 0.13326,-0.1365356 0,-0.05593 0.06,-0.1207214 0.13325,-0.1439836 0.0733,-0.023257 0.13326,-0.084193 0.13326,-0.1354005 0,-0.05121 0.06,-0.1252009 0.13325,-0.1644253 0.0873,-0.046696 0.13326,-0.1395069 0.13326,-0.2688537 0,-0.1531223 0.03,-0.1975406 0.13326,-0.1975406 0.0888,0 0.13325,-0.044418 0.13325,-0.1332547 0,-0.088836 0.0444,-0.1332548 0.13326,-0.1332548 0.0888,0 0.13325,-0.044421 0.13325,-0.1332574 0,-0.088836 0.0444,-0.1332547 0.13326,-0.1332547 0.0888,0 0.13325,-0.044418 0.13325,-0.13325478 0,-0.0888391 0.0444,-0.1332574 0.13326,-0.1332574 0.0888,0 0.13325,-0.0444182 0.13325,-0.13325475 0,-0.10853472 0.0444,-0.13325474 0.23944,-0.13325474 0.1834,0 0.24759,-0.0311864 0.27428,-0.1332574 0.0192,-0.0732896 0.0791,-0.13325475 0.13326,-0.13325475 0.0541,0 0.11336,-0.0571923 0.13164,-0.12709524 0.0183,-0.06990292 0.0904,-0.14205215 0.16033,-0.16033221 0.12412,-0.03245644 0.1271,0.07266252 0.1271,4.49121467 v 4.5244491 h -2.13418 c -1.83559,0 -2.13955,-0.013996 -2.17253,-0.099941 -0.0497,-0.1294183 -0.28803,-0.1288494 -0.3832,7.938e-4 -0.0659,0.089847 -0.0813,0.089572 -0.14061,-0.00265 z"
           id="path3877" />
        <path
           style="fill:#ffffff;fill-opacity:1;stroke:none;stroke-width:0.189622;stroke-linecap:round"
           d="m 253.4211,8.6069594 c 0.0236,-0.06413 0.0814,-0.139901 0.12849,-0.1683808 0.0471,-0.02848 0.10464,-0.1531461 0.12788,-0.2770346 0.0268,-0.1430179 0.0886,-0.2373789 0.16925,-0.2584635 0.0699,-0.018256 0.12699,-0.080989 0.12699,-0.1393878 0,-0.058399 0.0418,-0.1061773 0.0928,-0.1061773 0.1062,0 0.17369,-0.141478 0.17369,-0.3641328 0,-0.097314 0.0487,-0.1660816 0.13326,-0.1881955 0.0733,-0.019156 0.13325,-0.079132 0.13325,-0.1332547 0,-0.054126 0.06,-0.114091 0.13326,-0.1332574 0.0733,-0.019156 0.13325,-0.082627 0.13325,-0.1410256 0,-0.058399 0.043,-0.1061799 0.0955,-0.1061799 0.0525,0 0.11448,-0.059965 0.13774,-0.1332548 0.0233,-0.07329 0.0817,-0.1332547 0.12998,-0.1332547 0.0482,0 0.10336,-0.059965 0.12252,-0.1332574 0.0192,-0.07329 0.0826,-0.1332548 0.14103,-0.1332548 0.0618,0 0.10618,-0.055745 0.10618,-0.1332547 0,-0.088839 0.0444,-0.1332574 0.13325,-0.1332574 0.0888,0 0.13326,-0.044418 0.13326,-0.1332548 0,-0.088837 0.0444,-0.1332547 0.13326,-0.1332547 0.0888,0 0.13325,-0.044418 0.13325,-0.1332548 0,-0.086087 0.0444,-0.1332574 0.12549,-0.1332574 0.0694,0 0.14104,-0.059505 0.16033,-0.1332547 0.0191,-0.07329 0.0826,-0.1332547 0.14103,-0.1332547 0.0584,0 0.10617,-0.041479 0.10617,-0.092173 0,-0.050692 0.06,-0.1078521 0.13326,-0.1270159 0.0733,-0.019156 0.13326,-0.082629 0.13326,-0.1410282 0,-0.058399 0.0478,-0.1061773 0.10618,-0.1061773 0.0584,0 0.12185,-0.059965 0.14102,-0.1332574 0.0192,-0.07329 0.0791,-0.1332548 0.13326,-0.1332548 0.0541,0 0.11409,-0.059965 0.13325,-0.1332547 0.0193,-0.073753 0.0909,-0.1332574 0.16033,-0.1332574 0.0811,0 0.12549,-0.047167 0.12549,-0.1332547 0,-0.1085348 0.0444,-0.1332548 0.23943,-0.1332548 0.18341,0 0.24759,-0.031186 0.27428,-0.1332547 0.0193,-0.073753 0.0909,-0.1332574 0.16034,-0.1332574 0.0811,0 0.12548,-0.047167 0.12548,-0.1332548 0,-0.097721 0.0444,-0.1332547 0.16657,-0.1332547 0.0916,0 0.22133,-0.054761 0.28826,-0.1216898 0.0669,-0.066929 0.17187,-0.1409436 0.2332,-0.1644783 0.0613,-0.023521 0.1115,-0.088704 0.1115,-0.1448223 0,-0.063497 0.0609,-0.1020339 0.16112,-0.1020339 0.23001,0 0.37191,-0.066273 0.37191,-0.1736963 0,-0.051049 0.06,-0.092813 0.13325,-0.092813 0.0888,0 0.13326,-0.044418 0.13326,-0.1332548 0,-0.1085347 0.0444,-0.1332574 0.23943,-0.1332574 0.1834,0 0.24759,-0.031184 0.27429,-0.1332547 0.0264,-0.1010232 0.0909,-0.1332548 0.2665,-0.1332548 0.17564,0 0.2401,-0.032232 0.26652,-0.1332573 0.0264,-0.1010233 0.0909,-0.1332548 0.26651,-0.1332548 0.17563,0 0.24009,-0.032231 0.26651,-0.1332547 0.0264,-0.1010259 0.0909,-0.1332548 0.26651,-0.1332548 0.17563,0 0.24009,-0.032231 0.26651,-0.1332574 0.0264,-0.1010232 0.0909,-0.1332547 0.26651,-0.1332547 0.17563,0 0.24009,-0.032232 0.26651,-0.13325478 0.0293,-0.1121754 0.0909,-0.1332574 0.38904,-0.1332574 0.29568,0 0.36118,-0.0220133 0.39649,-0.13325475 0.0355,-0.11171237 0.10081,-0.13325474 0.40426,-0.13325474 0.31754,0 0.36196,-0.0163512 0.36196,-0.1332574 0,-0.11844866 0.0444,-0.13325475 0.39976,-0.13325475 0.35535,0 0.39977,-0.0148167 0.39977,-0.13325474 0,-0.12215019 0.0444,-0.13325475 0.53302,-0.13325475 0.48861,0 0.53302,-0.0111125 0.53302,-0.1332574 0,-0.0991791 0.0444,-0.13325475 0.1737,-0.13325475 0.13102,0 0.16376,0.0259027 0.13326,0.10539148 -0.0222,0.0579649 -0.0404,0.11793008 -0.0404,0.13325475 0,0.01531938 -0.0415,0.02786592 -0.0922,0.02786592 -0.0507,0 -0.10786,0.05996516 -0.12702,0.13325475 -0.0192,0.0732896 -0.0826,0.13325474 -0.14103,0.13325474 -0.0618,0 -0.10618,0.0557451 -0.10618,0.13325475 0,0.0888392 -0.0444,0.1332574 -0.13325,0.1332574 -0.0888,0 -0.13326,0.0444182 -0.13326,0.13325474 0,0.0888365 -0.0444,0.13325475 -0.13326,0.13325475 -0.0861,0 -0.13325,0.0444182 -0.13325,0.12548658 0,0.0694505 -0.0595,0.1410441 -0.13326,0.1603296 -0.0733,0.019156 -0.13325,0.082629 -0.13325,0.1410282 0,0.058399 -0.0457,0.1061799 -0.10159,0.1061799 -0.0559,0 -0.12854,0.070866 -0.16147,0.15748 -0.0329,0.086617 -0.10714,0.1756225 -0.16492,0.1977946 -0.0637,0.024421 -0.10504,0.1198509 -0.10504,0.2422842 0,0.1575541 -0.0293,0.2019723 -0.13326,0.2019723 -0.0888,0 -0.13326,0.044418 -0.13326,0.1332574 0,0.088836 -0.0444,0.1332548 -0.13325,0.1332548 -0.0888,0 -0.13326,0.044418 -0.13326,0.1332547 0,0.088836 -0.0444,0.1332548 -0.13325,0.1332548 -0.0861,0 -0.13326,0.044421 -0.13326,0.1254866 0,0.06945 -0.0595,0.141044 -0.13325,0.1603322 -0.10207,0.026691 -0.13326,0.090879 -0.13326,0.2742803 0,0.1950164 -0.0247,0.2394347 -0.13325,0.2394347 -0.0888,0 -0.13326,0.044418 -0.13326,0.1332574 0,0.088837 -0.0444,0.1332547 -0.13325,0.1332547 -0.0888,0 -0.13326,0.044418 -0.13326,0.1332548 0,0.088837 -0.0444,0.1332547 -0.13326,0.1332547 -0.11104,0 -0.13325,0.044421 -0.13325,0.2665121 0,0.2220913 -0.0222,0.2665122 -0.13326,0.2665122 -0.0888,0 -0.13325,0.044418 -0.13325,0.1332547 0,0.088836 -0.0444,0.1332548 -0.13326,0.1332548 -0.0833,0 -0.13325,0.044418 -0.13325,0.1184487 0,0.065146 -0.06,0.169791 -0.13326,0.2325449 -0.0733,0.062754 -0.13326,0.1893464 -0.13326,0.2813182 0,0.1228037 -0.0354,0.167222 -0.13325,0.167222 -0.11105,0 -0.13325,0.044418 -0.13325,0.2665121 0,0.2220913 -0.0222,0.2665095 -0.13326,0.2665095 -0.0888,0 -0.13326,0.044418 -0.13326,0.1332548 0,0.088839 -0.0444,0.1332573 -0.13325,0.1332573 -0.11105,0 -0.13326,0.044418 -0.13326,0.2665095 0,0.2220939 -0.0222,0.2665122 -0.13325,0.2665122 -0.10738,0 -0.13326,0.044418 -0.13326,0.2287058 0,0.1701932 -0.0341,0.23953 -0.13325,0.2710021 -0.098,0.031091 -0.13326,0.1008089 -0.13326,0.2632313 0,0.1649016 -0.0338,0.2297721 -0.13326,0.2557833 -0.0797,0.020849 -0.13325,0.090879 -0.13325,0.1743393 0,0.076721 -0.0418,0.1394936 -0.0928,0.1394936 -0.10188,0 -0.1737,0.1400043 -0.1737,0.3385873 0,0.1242854 -0.0917,0.127807 -3.3293,0.127807 -3.14266,0 -3.32689,-0.00654 -3.28644,-0.1165993 z"
           id="path3879" />
        <path
           style="fill:#ffffff;fill-opacity:1;stroke:none;stroke-width:0.189622;stroke-linecap:round"
           d="m 265.54764,39.838725 c -0.031,-0.118499 -0.0909,-0.133257 -0.54079,-0.133257 -0.46153,0 -0.50595,-0.0117 -0.50595,-0.133255 0,-0.116904 -0.0444,-0.133255 -0.36196,-0.133255 -0.30345,0 -0.3688,-0.02154 -0.40426,-0.133257 -0.0315,-0.09916 -0.10081,-0.133255 -0.271,-0.133255 -0.13987,0 -0.28047,-0.05176 -0.36196,-0.133255 -0.0875,-0.0875 -0.2221,-0.133255 -0.392,-0.133255 -0.20271,0 -0.26629,-0.02886 -0.29359,-0.133257 -0.0264,-0.101023 -0.0909,-0.133255 -0.26651,-0.133255 -0.17563,0 -0.24009,-0.03223 -0.26651,-0.133254 -0.0264,-0.101026 -0.0909,-0.133258 -0.26651,-0.133258 -0.17563,0 -0.24009,-0.03223 -0.26651,-0.133255 -0.0264,-0.101023 -0.0909,-0.133254 -0.26651,-0.133254 -0.17563,0 -0.2401,-0.03223 -0.26652,-0.133255 -0.0264,-0.101026 -0.0909,-0.133257 -0.2665,-0.133257 -0.17563,0 -0.2401,-0.03223 -0.26652,-0.133255 -0.0267,-0.102071 -0.0909,-0.133255 -0.27428,-0.133255 -0.19501,0 -0.23943,-0.02471 -0.23943,-0.133257 0,-0.08608 -0.0444,-0.133255 -0.12549,-0.133255 -0.0694,0 -0.14104,-0.05951 -0.16033,-0.133255 -0.0267,-0.102071 -0.0909,-0.133257 -0.27428,-0.133257 -0.19502,0 -0.23944,-0.02471 -0.23944,-0.133255 0,-0.08609 -0.0444,-0.133255 -0.12548,-0.133255 -0.0694,0 -0.14105,-0.05951 -0.16033,-0.133255 -0.0267,-0.10207 -0.0909,-0.133257 -0.27428,-0.133257 -0.19502,0 -0.23944,-0.02471 -0.23944,-0.133255 0,-0.08609 -0.0444,-0.133254 -0.12548,-0.133254 -0.0694,0 -0.14105,-0.05951 -0.16034,-0.133258 -0.0192,-0.07329 -0.0826,-0.133255 -0.14102,-0.133255 -0.0584,0 -0.10618,-0.04295 -0.10618,-0.09545 0,-0.0525 -0.0572,-0.113604 -0.1271,-0.135792 -0.0699,-0.0222 -0.14329,-0.08252 -0.16307,-0.134069 -0.0198,-0.05155 -0.14248,-0.113713 -0.27267,-0.138134 -0.14475,-0.02716 -0.23669,-0.08277 -0.23669,-0.143169 0,-0.05432 -0.06,-0.114445 -0.13326,-0.133612 -0.0733,-0.01916 -0.13326,-0.07913 -0.13326,-0.133254 0,-0.05413 -0.06,-0.114091 -0.13325,-0.133258 -0.0733,-0.01916 -0.13326,-0.0743 -0.13326,-0.122528 0,-0.04822 -0.06,-0.106712 -0.13325,-0.129974 -0.0733,-0.02326 -0.13326,-0.08322 -0.13326,-0.133255 0,-0.05003 -0.06,-0.109995 -0.13325,-0.133255 -0.0733,-0.02326 -0.13326,-0.08525 -0.13326,-0.137747 0,-0.0525 -0.0429,-0.09545 -0.0954,-0.09545 -0.0525,0 -0.11448,-0.05997 -0.13775,-0.133255 -0.0232,-0.07329 -0.0852,-0.133255 -0.13774,-0.133255 -0.0525,0 -0.0954,-0.04778 -0.0954,-0.10618 0,-0.0584 -0.0583,-0.121412 -0.12945,-0.14003 -0.0759,-0.01984 -0.14728,-0.115025 -0.17256,-0.230138 -0.0237,-0.107958 -0.10038,-0.23205 -0.17038,-0.275762 -0.07,-0.04371 -0.12726,-0.13223 -0.12726,-0.196707 0,-0.06448 -0.043,-0.117229 -0.0954,-0.117229 -0.0525,0 -0.11449,-0.05996 -0.13775,-0.133254 -0.0233,-0.07329 -0.0853,-0.133255 -0.13775,-0.133255 -0.0525,0 -0.0954,-0.04778 -0.0954,-0.10618 0,-0.0584 -0.0571,-0.121124 -0.12699,-0.139388 -0.0814,-0.0213 -0.14252,-0.115996 -0.17024,-0.263776 -0.0238,-0.126812 -0.0866,-0.24719 -0.13952,-0.267507 -0.053,-0.02032 -0.0963,-0.08151 -0.0963,-0.135991 0,-0.05448 -0.06,-0.114731 -0.13325,-0.133897 -0.0738,-0.01929 -0.13326,-0.09088 -0.13326,-0.160333 0,-0.07875 -0.047,-0.125484 -0.12626,-0.125484 -0.0986,0 -0.13181,-0.05828 -0.15167,-0.266512 l -0.0254,-0.266512 h 3.44975 3.44975 v 0.239437 c 0,0.183399 0.0312,0.24759 0.13325,0.274281 0.10103,0.02643 0.13326,0.09088 0.13326,0.266512 0,0.175628 0.0322,0.240091 0.13325,0.266509 0.0995,0.02601 0.13326,0.09088 0.13326,0.255784 0,0.162419 0.0353,0.23214 0.13326,0.263231 0.0992,0.03147 0.13325,0.100809 0.13325,0.271002 0,0.184288 0.0259,0.228706 0.13326,0.228706 0.10853,0 0.13325,0.04442 0.13325,0.239435 0,0.183401 0.0312,0.247589 0.13326,0.274283 0.0738,0.01929 0.13325,0.09088 0.13325,0.160332 0,0.08107 0.0472,0.125484 0.13326,0.125484 0.11105,0 0.13325,0.04442 0.13325,0.266509 0,0.222094 0.0222,0.266512 0.13326,0.266512 0.0888,0 0.13325,0.04442 0.13325,0.133255 0,0.08884 0.0444,0.133258 0.13326,0.133258 0.11105,0 0.13326,0.04442 0.13326,0.266509 0,0.222094 0.0222,0.266512 0.13325,0.266512 0.0888,0 0.13326,0.04442 0.13326,0.133255 0,0.08884 0.0444,0.133255 0.13325,0.133255 0.11105,0 0.13326,0.04442 0.13326,0.266512 0,0.222091 0.0222,0.266512 0.13325,0.266512 0.0888,0 0.13326,0.04442 0.13326,0.133255 0,0.08884 0.0444,0.133254 0.13326,0.133254 0.0888,0 0.13325,0.04442 0.13325,0.133255 0,0.08884 0.0444,0.133258 0.13325,0.133258 0.10854,0 0.13326,0.04442 0.13326,0.239434 0,0.183402 0.0312,0.247589 0.13326,0.274281 0.0738,0.01929 0.13325,0.09088 0.13325,0.160332 0,0.08107 0.0472,0.125484 0.13326,0.125484 0.0888,0 0.13325,0.04442 0.13325,0.133257 0,0.08884 0.0444,0.133255 0.13326,0.133255 0.0888,0 0.13325,0.04442 0.13325,0.133255 0,0.08884 0.0444,0.133257 0.13326,0.133257 0.10738,0 0.13326,0.04442 0.13326,0.228706 0,0.165841 0.0346,0.239704 0.12606,0.268719 0.0693,0.02201 0.14148,0.09898 0.16033,0.171058 0.0188,0.07208 0.0821,0.131048 0.14045,0.131048 0.0618,0 0.10618,0.05575 0.10618,0.133258 0,0.08884 0.0444,0.133254 0.13325,0.133254 0.0888,0 0.13326,0.04442 0.13326,0.133255 0,0.08884 0.0444,0.133257 0.13325,0.133257 0.0888,0 0.13326,0.04442 0.13326,0.133255 0,0.08884 0.0444,0.133255 0.13326,0.133255 0.0888,0 0.13325,0.04442 0.13325,0.133255 0,0.07329 0.0429,0.133257 0.0954,0.133257 0.0525,0 0.11449,0.05996 0.13775,0.133255 0.0233,0.07329 0.082,0.133255 0.13062,0.133255 0.0738,0 0.1692,0.134519 0.1692,0.238648 0,0.01532 -0.19139,0.02786 -0.42531,0.02786 -0.36927,0 -0.4299,-0.01757 -0.46015,-0.133255 z"
           id="path3881" />
        <path
           style="fill:#ffffff;fill-opacity:1;stroke:none;stroke-width:0.189622;stroke-linecap:round"
           d="m 269.23147,39.576703 c 0,-0.03418 -0.06,-0.08117 -0.13326,-0.104431 -0.0733,-0.02326 -0.13325,-0.08389 -0.13325,-0.134726 0,-0.05289 -0.0998,-0.111152 -0.2332,-0.136181 -0.16876,-0.03166 -0.2332,-0.07852 -0.2332,-0.16959 0,-0.08142 -0.047,-0.125839 -0.13325,-0.125839 -0.0888,0 -0.13326,-0.04442 -0.13326,-0.133257 0,-0.08884 -0.0444,-0.133255 -0.13325,-0.133255 -0.0888,0 -0.13326,-0.04442 -0.13326,-0.133254 0,-0.08884 -0.0444,-0.133258 -0.13325,-0.133258 -0.0888,0 -0.13326,-0.04442 -0.13326,-0.133255 0,-0.08884 -0.0444,-0.133254 -0.13325,-0.133254 -0.0888,0 -0.13326,-0.04442 -0.13326,-0.133255 0,-0.08884 -0.0444,-0.133257 -0.13326,-0.133257 -0.10737,0 -0.13325,-0.04442 -0.13325,-0.228706 0,-0.165841 -0.0347,-0.239708 -0.12606,-0.268719 -0.0693,-0.02201 -0.14149,-0.09898 -0.16033,-0.171058 -0.0188,-0.07208 -0.0786,-0.131051 -0.13268,-0.131051 -0.0541,0 -0.11409,-0.05996 -0.13326,-0.133255 -0.0191,-0.07329 -0.0826,-0.133255 -0.14102,-0.133255 -0.0618,0 -0.10618,-0.05575 -0.10618,-0.133255 0,-0.08884 -0.0444,-0.133257 -0.13326,-0.133257 -0.0888,0 -0.13326,-0.04442 -0.13326,-0.133255 0,-0.08884 -0.0444,-0.133254 -0.13325,-0.133254 -0.0888,0 -0.13326,-0.04442 -0.13326,-0.133258 0,-0.08884 -0.0444,-0.133255 -0.13325,-0.133255 -0.107,0 -0.13326,-0.04442 -0.13326,-0.225425 0,-0.169394 -0.0331,-0.23409 -0.13325,-0.260273 -0.0733,-0.01916 -0.13326,-0.08061 -0.13326,-0.136538 0,-0.05593 -0.0567,-0.119695 -0.12606,-0.1417 -0.0693,-0.02201 -0.14148,-0.09898 -0.16033,-0.171059 -0.0188,-0.07208 -0.0821,-0.131048 -0.14045,-0.131048 -0.0687,0 -0.10618,-0.05853 -0.10618,-0.166005 0,-0.09385 -0.0579,-0.202178 -0.13326,-0.249224 -0.0733,-0.04577 -0.13325,-0.135972 -0.13325,-0.200448 0,-0.06448 -0.043,-0.117229 -0.0955,-0.117229 -0.0525,0 -0.11449,-0.05997 -0.13775,-0.133255 -0.0233,-0.07329 -0.0826,-0.133255 -0.13189,-0.133255 -0.0526,0 -0.10818,-0.110032 -0.13462,-0.266512 -0.0277,-0.163848 -0.0813,-0.266512 -0.13911,-0.266512 -0.0517,0 -0.0941,-0.04778 -0.0941,-0.106177 0,-0.0584 -0.06,-0.121862 -0.13325,-0.141029 -0.0846,-0.02212 -0.13326,-0.09088 -0.13326,-0.188195 0,-0.222655 -0.0675,-0.36413 -0.1737,-0.36413 -0.051,0 -0.0928,-0.05996 -0.0928,-0.133258 0,-0.08884 -0.0444,-0.133254 -0.13325,-0.133254 -0.10854,0 -0.13326,-0.04442 -0.13326,-0.239435 0,-0.183401 -0.0312,-0.247589 -0.13326,-0.274283 -0.10102,-0.02643 -0.13325,-0.09088 -0.13325,-0.266509 0,-0.175631 -0.0322,-0.240094 -0.13326,-0.266513 -0.0738,-0.01929 -0.13325,-0.09088 -0.13325,-0.160332 0,-0.121269 0.11525,-0.125484 3.43133,-0.125484 h 3.43133 v 4.330806 c 0,2.381941 -0.015,4.330803 -0.0333,4.330803 -0.0183,0 -0.0333,-0.02796 -0.0333,-0.06214 z"
           id="path3883" />
        <path
           style="fill:#ffffff;fill-opacity:1;stroke:none;stroke-width:0.189622;stroke-linecap:round"
           d="m 271.16368,38.698276 c 0,-0.730835 0.018,-0.890138 0.10772,-0.955781 0.0959,-0.07012 0.11162,-0.445855 0.14317,-3.422018 l 0.0354,-3.343246 h 3.42142 c 3.377,0 3.42141,0.0019 3.42141,0.133255 0,0.08884 -0.0444,0.133257 -0.13325,0.133257 -0.11105,0 -0.13326,0.04442 -0.13326,0.26651 0,0.222094 -0.0222,0.266512 -0.13325,0.266512 -0.0861,0 -0.13326,0.04442 -0.13326,0.125484 0,0.06945 -0.0595,0.141047 -0.13325,0.160332 -0.10207,0.02669 -0.13326,0.09088 -0.13326,0.274283 0,0.195014 -0.0247,0.239435 -0.13325,0.239435 -0.0888,0 -0.13326,0.04442 -0.13326,0.133255 0,0.07329 -0.0418,0.133254 -0.0928,0.133254 -0.10743,0 -0.1737,0.141896 -0.1737,0.371904 0,0.1167 -0.0367,0.161118 -0.13326,0.161118 -0.0888,0 -0.13325,0.04442 -0.13325,0.133257 0,0.07329 -0.0418,0.133255 -0.0928,0.133255 -0.10743,0 -0.1737,0.141896 -0.1737,0.371901 0,0.116703 -0.0367,0.161121 -0.13326,0.161121 -0.0861,0 -0.13325,0.04442 -0.13325,0.125484 0,0.06945 -0.0595,0.141046 -0.13326,0.160332 -0.0733,0.01916 -0.13325,0.08263 -0.13325,0.141028 0,0.0584 -0.0436,0.106177 -0.0969,0.106177 -0.058,0 -0.11448,0.09361 -0.14067,0.233199 -0.024,0.128257 -0.0834,0.233196 -0.13178,0.233196 -0.0484,0 -0.10707,0.05996 -0.13033,0.133257 -0.0233,0.07329 -0.0832,0.133255 -0.13326,0.133255 -0.05,0 -0.10911,0.0572 -0.1313,0.1271 -0.0222,0.06991 -0.0842,0.14392 -0.13774,0.164479 -0.0536,0.02056 -0.0974,0.07979 -0.0974,0.13164 0,0.05184 -0.06,0.109943 -0.13326,0.129109 -0.0733,0.01916 -0.13325,0.07913 -0.13325,0.133255 0,0.05412 -0.06,0.114088 -0.13326,0.133255 -0.0797,0.02085 -0.13325,0.09088 -0.13325,0.174341 0,0.07672 -0.0418,0.139491 -0.0928,0.139491 -0.10187,0 -0.17369,0.140005 -0.17369,0.33859 0,0.08339 -0.0463,0.127805 -0.13326,0.127805 -0.0888,0 -0.13325,0.04442 -0.13325,0.133257 0,0.08884 -0.0444,0.133255 -0.13326,0.133255 -0.0888,0 -0.13326,0.04442 -0.13326,0.133255 0,0.08884 -0.0444,0.133257 -0.13325,0.133257 -0.0888,0 -0.13326,0.04442 -0.13326,0.133255 0,0.08884 -0.0444,0.133255 -0.13325,0.133255 -0.0888,0 -0.13326,0.04442 -0.13326,0.133257 0,0.08884 -0.0444,0.133255 -0.13325,0.133255 -0.0888,0 -0.13326,0.04442 -0.13326,0.133254 0,0.08884 -0.0444,0.133255 -0.13325,0.133255 -0.0888,0 -0.13326,0.04442 -0.13326,0.133258 0,0.08884 -0.0444,0.133254 -0.13326,0.133254 -0.0888,0 -0.13325,0.04442 -0.13325,0.133255 0,0.08884 -0.0444,0.133257 -0.13326,0.133257 -0.0862,0 -0.13325,0.04442 -0.13325,0.125839 0,0.09107 -0.0644,0.13793 -0.2332,0.16959 -0.12826,0.02405 -0.2332,0.06892 -0.2332,0.09969 0,0.03077 -0.075,0.105061 -0.16657,0.165087 l -0.16656,0.109141 z"
           id="path3885" />
        <path
           style="fill:#ffffff;fill-opacity:1;stroke:none;stroke-width:0.189622;stroke-linecap:round"
           d="m 274.02867,39.838725 c 0,-0.08884 0.0444,-0.133257 0.13325,-0.133257 0.0888,0 0.13326,-0.04442 0.13326,-0.133255 0,-0.08884 0.0444,-0.133255 0.13326,-0.133255 0.0888,0 0.13325,-0.04442 0.13325,-0.133257 0,-0.08884 0.0444,-0.133255 0.13325,-0.133255 0.0888,0 0.13326,-0.04442 0.13326,-0.133255 0,-0.08884 0.0444,-0.133255 0.13326,-0.133255 0.0888,0 0.13325,-0.04442 0.13325,-0.133257 0,-0.08884 0.0444,-0.133255 0.13326,-0.133255 0.0888,0 0.13325,-0.04442 0.13325,-0.133254 0,-0.08884 0.0444,-0.133258 0.13326,-0.133258 0.0888,0 0.13326,-0.04442 0.13326,-0.133255 0,-0.08884 0.0444,-0.133254 0.13325,-0.133254 0.0888,0 0.13326,-0.04442 0.13326,-0.133255 0,-0.08884 0.0444,-0.133257 0.13325,-0.133257 0.0861,0 0.13326,-0.04442 0.13326,-0.125484 0,-0.06945 0.0595,-0.141047 0.13325,-0.160333 0.0797,-0.02085 0.13326,-0.09088 0.13326,-0.174339 0,-0.07672 0.0418,-0.139493 0.0928,-0.139493 0.10188,0 0.1737,-0.140005 0.1737,-0.338588 0,-0.08339 0.0463,-0.127807 0.13325,-0.127807 0.0888,0 0.13326,-0.04442 0.13326,-0.133255 0,-0.08884 0.0444,-0.133257 0.13326,-0.133257 0.0888,0 0.13325,-0.04442 0.13325,-0.133255 0,-0.08884 0.0444,-0.133254 0.13326,-0.133254 0.0828,0 0.13325,-0.04442 0.13325,-0.117229 0,-0.06448 0.06,-0.154678 0.13326,-0.200449 0.085,-0.05309 0.13325,-0.155376 0.13325,-0.282538 0,-0.1549 0.0297,-0.199318 0.13326,-0.199318 0.0888,0 0.13325,-0.04442 0.13325,-0.133255 0,-0.08884 0.0444,-0.133257 0.13326,-0.133257 0.11105,0 0.13325,-0.04442 0.13325,-0.26651 0,-0.222094 0.0222,-0.266512 0.13326,-0.266512 0.0888,0 0.13326,-0.04442 0.13326,-0.133255 0,-0.08884 0.0444,-0.133254 0.13325,-0.133254 0.0895,0 0.13326,-0.04442 0.13326,-0.135348 0,-0.07444 0.0442,-0.152292 0.0981,-0.173003 0.054,-0.02072 0.11727,-0.1397 0.14067,-0.264419 0.0306,-0.162875 0.078,-0.226764 0.16838,-0.226764 0.10002,0 0.12584,-0.04912 0.12584,-0.239435 0,-0.183401 0.0312,-0.247592 0.13325,-0.274283 0.0733,-0.01916 0.13326,-0.08782 0.13326,-0.152561 0,-0.06474 0.06,-0.133395 0.13326,-0.152559 0.0981,-0.02567 0.13325,-0.09088 0.13325,-0.247208 0,-0.156324 0.0352,-0.221552 0.13326,-0.247206 0.0995,-0.02601 0.13325,-0.09088 0.13325,-0.255783 0,-0.16242 0.0353,-0.232137 0.13326,-0.263229 0.0992,-0.03147 0.13325,-0.100811 0.13325,-0.271002 0,-0.164848 0.0297,-0.228706 0.10618,-0.228706 0.0584,0 0.12186,-0.05996 0.14103,-0.133257 0.0338,-0.129183 0.0909,-0.133255 1.86865,-0.133255 1.55427,0 1.84508,0.01527 1.90778,0.100121 0.0598,0.08098 0.34158,0.108387 1.47395,0.143357 l 1.39998,0.04323 -0.0245,0.256411 c -0.0189,0.198652 -0.0529,0.25641 -0.15071,0.25641 -0.0818,0 -0.12625,0.04688 -0.12625,0.133255 0,0.07751 -0.0444,0.133255 -0.10618,0.133255 -0.0584,0 -0.12186,0.05996 -0.14103,0.133257 -0.0192,0.07329 -0.0731,0.133255 -0.11989,0.133255 -0.10028,0 -0.16592,0.147134 -0.16592,0.371901 0,0.116702 -0.0367,0.16112 -0.13326,0.16112 -0.0888,0 -0.13326,0.04442 -0.13326,0.133255 0,0.08884 -0.0444,0.133257 -0.13325,0.133257 -0.0861,0 -0.13326,0.04442 -0.13326,0.125484 0,0.06945 -0.0595,0.141047 -0.13325,0.160333 -0.0733,0.01916 -0.13326,0.07913 -0.13326,0.133254 0,0.05413 -0.06,0.114091 -0.13325,0.133255 -0.0733,0.01916 -0.13326,0.08263 -0.13326,0.141028 0,0.0584 -0.0429,0.10618 -0.0954,0.10618 -0.0525,0 -0.11449,0.05996 -0.13774,0.133255 -0.0233,0.07329 -0.0832,0.133255 -0.13326,0.133255 -0.05,0 -0.10999,0.05996 -0.13326,0.133255 -0.0232,0.07329 -0.0852,0.133257 -0.13774,0.133257 -0.0525,0 -0.0954,0.04778 -0.0954,0.106177 0,0.0584 -0.06,0.121862 -0.13326,0.141028 -0.0733,0.01916 -0.13326,0.07913 -0.13326,0.133255 0,0.05413 -0.06,0.114091 -0.13325,0.133255 -0.0733,0.01916 -0.13326,0.07283 -0.13326,0.119248 0,0.04642 -0.06,0.100081 -0.13325,0.119247 -0.0733,0.01916 -0.13326,0.07913 -0.13326,0.133255 0,0.05413 -0.06,0.114091 -0.13325,0.133255 -0.0733,0.01916 -0.13326,0.08263 -0.13326,0.141028 0,0.06176 -0.0557,0.10618 -0.13325,0.10618 -0.0858,0 -0.13326,0.04442 -0.13326,0.124738 0,0.09401 -0.0657,0.135239 -0.26651,0.167357 -0.16067,0.02569 -0.26651,0.07891 -0.26651,0.134001 0,0.05026 -0.06,0.107063 -0.13326,0.12623 -0.0733,0.01916 -0.13325,0.08263 -0.13325,0.141028 0,0.06176 -0.0557,0.106177 -0.13326,0.106177 -0.0888,0 -0.13325,0.04442 -0.13325,0.133257 0,0.108535 -0.0444,0.133255 -0.23944,0.133255 -0.1834,0 -0.24759,0.03118 -0.27428,0.133255 -0.0193,0.07375 -0.0909,0.133255 -0.16033,0.133255 -0.0811,0 -0.12549,0.04717 -0.12549,0.133257 0,0.108535 -0.0444,0.133255 -0.23943,0.133255 -0.1834,0 -0.24759,0.03119 -0.27428,0.133255 -0.0193,0.07375 -0.0909,0.133257 -0.16034,0.133257 -0.069,0 -0.18544,0.05997 -0.25874,0.133255 -0.0733,0.07329 -0.19322,0.133255 -0.26651,0.133255 -0.0888,0 -0.13325,0.04442 -0.13325,0.133257 0,0.111046 -0.0444,0.133255 -0.26651,0.133255 -0.2221,0 -0.26652,0.0222 -0.26652,0.133254 0,0.111046 -0.0444,0.133255 -0.2665,0.133255 -0.2221,0 -0.26652,0.0222 -0.26652,0.133258 0,0.111045 -0.0444,0.133254 -0.26651,0.133254 -0.22209,0 -0.26651,0.0222 -0.26651,0.133255 0,0.117375 -0.0444,0.133257 -0.37269,0.133257 -0.31665,0 -0.37793,0.02003 -0.40754,0.133255 -0.0293,0.112173 -0.0909,0.133255 -0.38904,0.133255 -0.29567,0 -0.36117,0.02201 -0.39648,0.133255 -0.0353,0.111241 -0.10081,0.133257 -0.39649,0.133257 -0.29815,0 -0.3597,0.02109 -0.38904,0.133255 -0.0295,0.112977 -0.0909,0.133255 -0.40304,0.133255 -0.30969,0 -0.37492,0.02119 -0.4105,0.133257 -0.0385,0.121473 -0.10081,0.133255 -0.70408,0.133255 -0.61737,0 -0.66179,-0.0089 -0.66179,-0.133255 z"
           id="path3887" />
      </g>
      <text
         xml:space="preserve"
         style="font-size:16.031px;font-family:'Kristen ITC';-inkscape-font-specification:'Kristen ITC';fill:#ffffff;fill-opacity:1;stroke:none;stroke-width:3.80198;stroke-linecap:round"
         x="70.627426"
         y="-78.645905"
         id="text4821-5-5"
         transform="scale(0.95821786,1.043604)"><tspan
           sodipodi:role="line"
           id="tspan4819-1-3"
           style="font-style:normal;font-variant:normal;font-weight:normal;font-stretch:normal;font-family:Impact;-inkscape-font-specification:Impact;fill:#ffffff;stroke-width:3.80198"
           x="70.627426"
           y="-78.645905">NOTICIAS RECIENTES</tspan></text>
    </g>
  </g>
</svg>
