<?xml version="1.0" encoding="UTF-8" standalone="no"?>
<!-- Created with Inkscape (http://www.inkscape.org/) -->

<svg
   width="239.32692mm"
   height="19.455307mm"
   viewBox="0 0 239.32692 19.455307"
   version="1.1"
   id="svg5112"
   inkscape:version="1.2.1 (9c6d41e410, 2022-07-14)"
   sodipodi:docname="Pestanha_tweeter.svg"
   xmlns:inkscape="http://www.inkscape.org/namespaces/inkscape"
   xmlns:sodipodi="http://sodipodi.sourceforge.net/DTD/sodipodi-0.dtd"
   xmlns:xlink="http://www.w3.org/1999/xlink"
   xmlns="http://www.w3.org/2000/svg"
   xmlns:svg="http://www.w3.org/2000/svg">
  <sodipodi:namedview
     id="namedview5114"
     pagecolor="#ffffff"
     bordercolor="#000000"
     borderopacity="0.25"
     inkscape:showpageshadow="2"
     inkscape:pageopacity="0.0"
     inkscape:pagecheckerboard="0"
     inkscape:deskcolor="#d1d1d1"
     inkscape:document-units="mm"
     showgrid="false"
     inkscape:zoom="0.70199214"
     inkscape:cx="225.786"
     inkscape:cy="276.35637"
     inkscape:window-width="1920"
     inkscape:window-height="986"
     inkscape:window-x="-11"
     inkscape:window-y="-11"
     inkscape:window-maximized="1"
     inkscape:current-layer="layer1" />
  <defs
     id="defs5109">
    <linearGradient
       inkscape:collect="always"
       id="linearGradient2642">
      <stop
         style="stop-color:#000000;stop-opacity:0.13765182;"
         offset="0"
         id="stop2638" />
      <stop
         style="stop-color:#000000;stop-opacity:0;"
         offset="1"
         id="stop2640" />
    </linearGradient>
    <linearGradient
       inkscape:collect="always"
       xlink:href="#linearGradient2642"
       id="linearGradient2644"
       x1="-40.415447"
       y1="-7.5029697"
       x2="198.91147"
       y2="-7.5029697"
       gradientUnits="userSpaceOnUse" />
  </defs>
  <g
     inkscape:label="Capa 1"
     inkscape:groupmode="layer"
     id="layer1"
     transform="translate(40.415447,17.230623)">
    <g
       id="g2697">
      <rect
         style="fill:url(#linearGradient2644);fill-opacity:1;stroke-width:0.641083;stroke-linecap:round"
         id="rect622"
         width="239.32692"
         height="19.455307"
         x="-40.415447"
         y="-17.230623" />
      <path
         style="fill:#52a8e7;fill-opacity:1;stroke:none;stroke-width:0.0564389;stroke-linecap:round"
         d="m -18.907277,-0.80824458 c -0.539416,-0.0558 -0.832222,-0.0954 -1.021298,-0.13831 -0.06545,-0.0149 -0.176992,-0.0377 -0.247885,-0.0508 -0.07089,-0.0131 -0.195837,-0.0415 -0.277636,-0.0631 -0.08181,-0.0216 -0.215666,-0.0568 -0.297472,-0.0782 -0.226528,-0.0592 -0.2508,-0.0668 -0.495778,-0.1553 -0.125429,-0.0453 -0.250367,-0.0896 -0.277628,-0.0984 -0.121702,-0.0392 -0.775187,-0.31944 -0.817388,-0.35058 -0.01401,-0.0103 -0.07455,-0.0403 -0.134509,-0.0665 -0.06001,-0.0262 -0.120025,-0.0558 -0.133413,-0.0656 -0.01342,-0.01 -0.07585,-0.045 -0.138811,-0.0781 -0.142023,-0.0748 -0.155948,-0.0827 -0.357943,-0.20396 -0.09027,-0.0542 -0.18397,-0.11034 -0.20822,-0.12478 -0.04182,-0.0249 -0.041,-0.0256 0.01543,-0.0128 0.03273,0.007 0.318286,0.0181 0.634588,0.0237 0.554206,0.01 0.78877,-0.002 1.150209,-0.0562 0.232029,-0.035 0.688812,-0.13443 0.862652,-0.18773 0.148039,-0.0454 0.403937,-0.12965 0.446197,-0.1469 0.02184,-0.009 0.07089,-0.0272 0.109074,-0.0408 0.03817,-0.0135 0.115709,-0.0456 0.172289,-0.0714 0.05658,-0.0258 0.108501,-0.0469 0.115359,-0.0469 0.0331,0 0.560423,-0.27018 0.752101,-0.38536 0.11922,-0.0716 0.224075,-0.13025 0.23302,-0.13025 0.0089,0 0.01625,-0.008 0.01625,-0.0185 0,-0.0102 0.01625,-0.0237 0.03615,-0.03 0.01983,-0.006 0.05419,-0.0283 0.07623,-0.0488 0.02207,-0.0205 0.06821,-0.0519 0.102649,-0.0697 0.03444,-0.0178 0.06262,-0.0388 0.06262,-0.0467 2.2e-5,-0.008 0.04018,-0.0397 0.08925,-0.0707 0.04905,-0.031 0.0892,-0.0637 0.0892,-0.0727 0,-0.009 -0.06918,-0.0217 -0.15369,-0.0282 -0.703825,-0.0546 -1.287417,-0.27973 -1.84904,-0.71342 -0.07082,-0.0547 -0.177872,-0.14648 -0.237978,-0.20406 -0.06008,-0.0576 -0.115969,-0.1048 -0.124147,-0.10495 -0.0082,-1.1e-4 -0.01484,-0.009 -0.01484,-0.0203 0,-0.011 -0.02788,-0.0489 -0.06187,-0.0843 -0.03399,-0.0354 -0.08484,-0.0955 -0.112899,-0.13368 -0.02803,-0.0382 -0.06113,-0.0783 -0.0735,-0.0892 -0.04838,-0.0427 -0.233051,-0.34663 -0.319262,-0.52552 -0.108933,-0.22606 -0.117804,-0.2476 -0.173593,-0.4213 -0.01252,-0.0389 -0.0076,-0.0388 0.314781,0.006 0.207527,0.0285 0.56348,0.0147 0.832901,-0.0322 0.09817,-0.0171 0.207481,-0.0358 0.242927,-0.0416 0.07388,-0.012 0.08919,-0.0657 0.01879,-0.0657 -0.100599,0 -0.680403,-0.21398 -0.807048,-0.29784 -0.0164,-0.0108 -0.06098,-0.0353 -0.09916,-0.0543 -0.03817,-0.019 -0.07387,-0.0393 -0.07932,-0.0451 -0.0052,-0.006 -0.05897,-0.0415 -0.118981,-0.0792 -0.214332,-0.13493 -0.477566,-0.36257 -0.658539,-0.5695 -0.339218,-0.38786 -0.620902,-0.90836 -0.7379,-1.36348 -0.08105,-0.31526 -0.161443,-0.93802 -0.118758,-0.91986 0.0098,0.004 0.09424,0.0446 0.187496,0.0898 0.346418,0.16797 0.795702,0.28857 1.164089,0.31247 0.153369,0.01 0.215085,-0.009 0.124066,-0.0377 -0.02177,-0.007 -0.05077,-0.0231 -0.06448,-0.036 -0.01372,-0.0129 -0.06955,-0.0591 -0.124058,-0.10253 -0.130909,-0.10439 -0.423155,-0.39621 -0.496769,-0.49605 -0.03213,-0.0436 -0.07458,-0.0971 -0.09425,-0.11891 -0.01968,-0.0218 -0.06403,-0.0843 -0.0985,-0.1388304 -0.03451,-0.0546 -0.06806,-0.10369 -0.07464,-0.10915 -0.0067,-0.005 -0.06642,-0.12146 -0.133011,-0.2578 -0.167674,-0.34319 -0.255041,-0.61226 -0.325166,-1.00147 -0.03295,-0.18276 -0.03332,-0.85251 -7.45e-4,-1.0213 0.05673,-0.29247 0.07156,-0.35458 0.123454,-0.51561 0.09036,-0.28049 0.26392,-0.65468 0.303384,-0.65408 0.01252,1.9e-4 0.04219,0.0283 0.06605,0.0624 0.143991,0.20608 0.902585,0.96988 1.168704,1.17672 0.04212,0.0327 0.112332,0.0914 0.156082,0.13034 0.04376,0.039 0.11524,0.0969 0.158864,0.12879 0.04361,0.0319 0.08379,0.0631 0.08925,0.0694 0.02706,0.0313 0.555264,0.39529 0.573647,0.39529 0.0117,0 0.02132,0.007 0.02132,0.0153 0,0.008 0.03347,0.0329 0.0744,0.0543 0.04093,0.0215 0.07882,0.0446 0.08428,0.0514 0.02341,0.0291 0.519841,0.3029 0.788524,0.43494 0.527593,0.25927 0.601765,0.29083 1.125176,0.47874 0.205067,0.0736 0.250532,0.0884 0.411497,0.13362 0.03548,0.01 0.11799,0.0333 0.183433,0.0519 0.06545,0.0186 0.154682,0.0421 0.198313,0.0522 0.04361,0.0101 0.110558,0.026 0.148732,0.0353 0.03817,0.009 0.100644,0.0229 0.138826,0.0302 0.03817,0.007 0.122947,0.0254 0.18839,0.0401 0.327112,0.0738 1.039793,0.16879 1.266477,0.16879 0.131483,0 0.131617,-6e-5 0.131617,-0.0565 0,-0.0311 -0.0081,-0.0824 -0.01789,-0.11403 -0.04182,-0.13466 -0.06634,-0.6085 -0.04339,-0.84083 0.02691,-0.27288 0.05546,-0.45425 0.09052,-0.5751 0.01424,-0.0491 0.0413,-0.14278 0.06008,-0.20822 0.03347,-0.11637 0.179758,-0.47585 0.21006,-0.51607 0.0084,-0.0112 0.04301,-0.073 0.07694,-0.13749 0.141674,-0.26932 0.419831,-0.60977 0.714381,-0.87436 0.227609,-0.20447 0.605083,-0.44033 0.900163,-0.56247 0.326895,-0.13531 0.474338,-0.17497 0.891373,-0.23983 0.437029,-0.068 0.840065,-0.0408 1.35169,0.091 0.232723,0.06 0.671712,0.24727 0.795121,0.33925 0.03377,0.0252 0.06717,0.0457 0.07432,0.0457 0.01319,0 0.2925297,0.19458 0.3105397,0.21631 0.0052,0.007 0.04368,0.0371 0.085,0.0679 0.0413,0.0308 0.125437,0.10437 0.186982,0.1635 0.11547,0.11095 0.138132,0.11962 0.235711,0.0901 0.03161,-0.01 0.106578,-0.0278 0.166564,-0.0405 0.150782,-0.032 0.646709,-0.18309 0.783328,-0.23867 0.02184,-0.009 0.102134,-0.0407 0.178476,-0.0707 0.180459,-0.071 0.592224,-0.26938 0.745377,-0.35914 0.06612,-0.0388 0.125243,-0.0655 0.131348,-0.0594 0.01051,0.0105 -0.0015,0.0487 -0.06828,0.21068 -0.05807,0.1416 -0.231642,0.47594 -0.247073,0.47594 -0.0088,0 -0.01595,0.009 -0.01595,0.0209 0,0.0236 -0.141129,0.23636 -0.187705,0.28294 -0.0167,0.0167 -0.03049,0.0347 -0.03049,0.0399 0,0.0276 -0.336362,0.38063 -0.466168,0.48931 -0.03265,0.0273 -0.108441,0.0852 -0.168427,0.1285 -0.06001,0.0433 -0.120286,0.0896 -0.13398,0.10269 -0.01372,0.0131 -0.04272,0.0296 -0.06448,0.0365 -0.02177,0.007 -0.03951,0.0214 -0.03951,0.0323 0,0.0204 0.0891,0.0133 0.307387,-0.0246 0.259067,-0.0449 0.32747,-0.0601 0.634588,-0.14078 0.131595,-0.0346 0.511521,-0.15613 0.575108,-0.18401 0.139869,-0.0613 0.332748,-0.1302 0.341156,-0.1218 0.01081,0.0108 -0.02326,0.0779 -0.05844,0.11507 -0.01372,0.0145 -0.06433,0.0799 -0.112474,0.14532 -0.110334,0.14993 -0.342378,0.43144 -0.441359,0.53544 -0.235943,0.2479 -0.511246,0.50913 -0.641118,0.60835 -0.03273,0.025 -0.07734,0.062 -0.09916,0.0821 -0.02177,0.0202 -0.09543,0.0778 -0.163604,0.12808 l -0.123939,0.0914 v 0.45394 c 0,0.5623604 -0.07104,1.3002704 -0.169434,1.7594904 -0.05091,0.2375 -0.130439,0.58443 -0.147808,0.64451 -0.0095,0.0327 -0.02781,0.0997 -0.0407,0.14874 -0.06038,0.22929 -0.256696,0.82057 -0.329221,0.99155 -0.03422,0.0806 -0.05919,0.14069 -0.08447,0.20327 -0.150633,0.37248 -0.379509,0.82967 -0.632881,1.26423 -0.06038,0.10362 -0.1171467,0.19137 -0.1260777,0.19501 -0.0089,0.004 -0.01625,0.0162 -0.01625,0.0279 0,0.0117 -0.02229,0.0505 -0.04957,0.0863 -0.02728,0.0358 -0.04957,0.0707 -0.04957,0.0777 0,0.0134 -0.374902,0.54803 -0.396222,0.56507 -0.0067,0.005 -0.03869,0.0456 -0.07089,0.0892 -0.03213,0.0436 -0.06739,0.0893 -0.07828,0.1014 -0.01088,0.0121 -0.05106,0.0608 -0.08924,0.10809 -0.03817,0.0473 -0.08949,0.10694 -0.114032,0.13252 -0.02452,0.0256 -0.04458,0.0497 -0.04458,0.0535 0,0.0132 -0.267051,0.29826 -0.465848,0.49726 -0.210098,0.21032 -0.285821,0.28011 -0.527421,0.4861 -0.156456,0.13339 -0.169054,0.14368 -0.315095,0.25745 -0.04883,0.038 -0.09989,0.0794 -0.113503,0.092 -0.01364,0.0126 -0.05621,0.0423 -0.09469,0.0661 -0.03847,0.0238 -0.06992,0.0503 -0.06992,0.059 0,0.009 -0.02579,0.0265 -0.0574,0.0396 -0.03153,0.0131 -0.07417,0.0387 -0.09464,0.0569 -0.09609,0.0856 -0.596816,0.39543 -0.79984,0.49492 -0.03817,0.0187 -0.07387,0.0396 -0.07932,0.0464 -0.0095,0.0119 -0.349043,0.17753 -0.575101,0.28054 -0.290562,0.1324 -0.844642,0.33926 -1.105587,0.41276 -0.03548,0.01 -0.09792,0.0277 -0.138818,0.0393 -0.04093,0.0116 -0.1056,0.0284 -0.143767,0.0373 -0.03817,0.009 -0.140809,0.0343 -0.228064,0.0564 -0.08725,0.0222 -0.207735,0.0498 -0.267721,0.0614 -0.06001,0.0116 -0.176001,0.0343 -0.257807,0.0504 -0.226215,0.0446 -0.482546,0.0791 -0.981633,0.1321 -0.337749,0.0359 -1.338607,0.0405 -1.655901,0.008 z"
         id="path371" />
      <text
         xml:space="preserve"
         style="font-size:11.9503px;font-family:'Kristen ITC';-inkscape-font-specification:'Kristen ITC';fill:#ffffff;fill-opacity:1;stroke:none;stroke-width:2.83419;stroke-linecap:round"
         x="9.1297417"
         y="-2.5529876"
         id="text4821"
         transform="scale(0.95821786,1.043604)"><tspan
           sodipodi:role="line"
           id="tspan4819"
           style="font-style:normal;font-variant:normal;font-weight:normal;font-stretch:normal;font-family:Impact;-inkscape-font-specification:Impact;fill:#ffffff;stroke-width:2.83419"
           x="9.1297417"
           y="-2.5529876">CONTENIDO DE TWEETER</tspan></text>
    </g>
  </g>
</svg>
