<?xml version="1.0" encoding="UTF-8" standalone="no"?>
<!-- Created with Inkscape (http://www.inkscape.org/) -->

<svg
   width="239.32692mm"
   height="19.455307mm"
   viewBox="0 0 239.32692 19.455307"
   version="1.1"
   id="svg5112"
   inkscape:version="1.2.1 (9c6d41e410, 2022-07-14)"
   sodipodi:docname="Pestanha_linkdin.svg"
   xml:space="preserve"
   xmlns:inkscape="http://www.inkscape.org/namespaces/inkscape"
   xmlns:sodipodi="http://sodipodi.sourceforge.net/DTD/sodipodi-0.dtd"
   xmlns:xlink="http://www.w3.org/1999/xlink"
   xmlns="http://www.w3.org/2000/svg"
   xmlns:svg="http://www.w3.org/2000/svg"><sodipodi:namedview
     id="namedview5114"
     pagecolor="#ffffff"
     bordercolor="#000000"
     borderopacity="0.25"
     inkscape:showpageshadow="2"
     inkscape:pageopacity="0.0"
     inkscape:pagecheckerboard="0"
     inkscape:deskcolor="#d1d1d1"
     inkscape:document-units="mm"
     showgrid="false"
     inkscape:zoom="0.9927668"
     inkscape:cx="432.62929"
     inkscape:cy="100.72859"
     inkscape:window-width="1920"
     inkscape:window-height="986"
     inkscape:window-x="-11"
     inkscape:window-y="-11"
     inkscape:window-maximized="1"
     inkscape:current-layer="layer1" /><defs
     id="defs5109"><linearGradient
       inkscape:collect="always"
       id="linearGradient2642"><stop
         style="stop-color:#000000;stop-opacity:0.13765182;"
         offset="0"
         id="stop2638" /><stop
         style="stop-color:#000000;stop-opacity:0;"
         offset="1"
         id="stop2640" /></linearGradient><linearGradient
       inkscape:collect="always"
       xlink:href="#linearGradient2642"
       id="linearGradient2644"
       x1="-40.415447"
       y1="-7.5029697"
       x2="198.91147"
       y2="-7.5029697"
       gradientUnits="userSpaceOnUse" /></defs><g
     inkscape:label="Capa 1"
     inkscape:groupmode="layer"
     id="layer1"
     transform="translate(40.415447,17.230623)"><g
       id="g4106"><g
         id="g2697"><rect
           style="fill:url(#linearGradient2644);fill-opacity:1;stroke-width:0.641083;stroke-linecap:round"
           id="rect622"
           width="239.32692"
           height="19.455307"
           x="-40.415447"
           y="-17.230623" /><text
           xml:space="preserve"
           style="font-size:11.9503px;font-family:'Kristen ITC';-inkscape-font-specification:'Kristen ITC';fill:#ffffff;fill-opacity:1;stroke:none;stroke-width:2.83419;stroke-linecap:round"
           x="9.1297417"
           y="-2.5529876"
           id="text4821"
           transform="scale(0.95821786,1.043604)"><tspan
             sodipodi:role="line"
             id="tspan4819"
             style="font-style:normal;font-variant:normal;font-weight:normal;font-stretch:normal;font-family:Impact;-inkscape-font-specification:Impact;fill:#ffffff;stroke-width:2.83419"
             x="9.1297417"
             y="-2.5529876">CONTENIDO DE LINKEDIN</tspan></text></g><g
         id="g4094"
         transform="matrix(0.22561324,0,0,0.22561324,-17.705981,-23.036786)"><rect
           style="fill:#0274b3;fill-opacity:1;stroke:none;stroke-width:1.53618;stroke-linecap:round"
           id="rect613"
           width="59.530998"
           height="59.530998"
           x="-18.21129"
           y="39.086948"
           ry="5.0881982" /><g
           id="g3938"
           style="fill:#ffffff;fill-opacity:1;stroke:#0274b3;stroke-width:6.79869;stroke-dasharray:none;stroke-opacity:1"
           transform="matrix(0.206692,0,0,0.20721166,67.583291,38.636371)"><path
             style="fill:#ffffff;fill-opacity:1;stroke:#0274b3;stroke-width:25.6958;stroke-linecap:round;stroke-dasharray:none;stroke-opacity:1"
             d="m -998.80195,1006.0087 c -1.97835,-1.3302 -3.95985,-3.8056 -4.64975,-5.8087 -0.9188,-2.66745 -1.2153,-64.53755 -1.2576,-262.36308 -0.052,-244.53233 0.042,-259.0638 1.7059,-262.32637 0.9687,-1.89965 3.04079,-4.39268 4.60471,-5.54008 2.8117,-2.06285 3.72945,-2.08908 82.0938,-2.34623 73.93742,-0.24263 79.48186,-0.14133 82.70421,1.51093 7.0858,3.63325 7.5895,5.28156 7.94001,25.98287 l 0.31375,18.53104 10.76639,-9.63999 c 29.85876,-26.73489 65.16983,-42.62253 105.92848,-47.66078 4.69453,-0.5803 16.93582,-1.05509 27.20289,-1.05509 36.4223,0 67.00807,5.50217 93.77849,16.87011 21.21243,9.00775 35.85628,19.05005 51.35694,35.21899 32.95712,34.378 49.5481,81.53837 55.55963,157.93001 0.94559,12.01604 1.27053,56.6094 1.27714,175.26775 0.009,154.66046 -0.0451,159.23079 -1.90346,161.97272 -4.06373,5.9957 -0.0243,5.7404 -90.80435,5.7404 -91.58568,0 -86.68431,0.3296 -90.47282,-6.0839 -1.50279,-2.54398 -1.64874,-14.62794 -1.66208,-137.60977 -0.0171,-157.36447 -0.56863,-172.6537 -7.09382,-196.64472 -6.43568,-23.66184 -20.86194,-39.10921 -41.42869,-44.36098 -14.75603,-3.76801 -35.62783,-3.57086 -51.54222,0.48685 -26.52534,6.76318 -43.4192,27.51099 -50.38645,61.88101 -3.95266,19.49877 -3.97494,20.32422 -4.57412,169.45691 l -0.58575,145.7857 -3.29279,3.2926 -3.29278,3.2926 -84.41907,0.2686 -84.41907,0.2686 z"
             id="path3933"
             transform="matrix(0.26458333,0,0,0.26458333,-40.415447,-17.230623)" /><path
             style="fill:#ffffff;fill-opacity:1;stroke:#0274b3;stroke-width:25.6958;stroke-linecap:round;stroke-dasharray:none;stroke-opacity:1"
             d="m -1190.4555,420.51244 c -61.8602,-11.70942 -100.3392,-71.77826 -84.1861,-131.42139 4.6243,-17.07442 17.2987,-38.00855 29.9319,-49.43787 12.9774,-11.74078 29.7328,-20.86307 46.3664,-25.24367 11.0885,-2.92026 31.1228,-3.59859 43.3352,-1.46729 33.0778,5.77273 61.3913,27.1282 76.2533,57.51404 10.8346,22.15178 13.7216,43.80523 8.9496,67.12403 -9.7766,47.77417 -51.1299,82.46761 -100.1574,84.02732 -8.4904,0.2701 -15.1645,-0.0865 -20.4929,-1.09517 z"
             id="path3929"
             transform="matrix(0.26458333,0,0,0.26458333,-40.415447,-17.230623)" /><path
             style="fill:#ffffff;fill-opacity:1;stroke:#0274b3;stroke-width:25.6958;stroke-linecap:round;stroke-dasharray:none;stroke-opacity:1"
             d="m -1258.5735,1007.0046 c -1.3684,-0.6925 -3.5215,-2.7926 -4.7846,-4.6669 l -2.2966,-3.40802 v -260.7881 c 0,-285.01961 -0.4464,-264.15174 5.7404,-268.34495 2.7155,-1.84046 5.9827,-1.91233 86.9299,-1.91233 81.791,0 84.1885,0.0542 87.0158,1.96864 6.0456,4.09349 5.6545,-14.50177 5.6545,268.80995 v 260.26679 l -2.2967,3.40802 c -1.2631,1.8743 -3.4162,3.9744 -4.7846,4.6669 -3.6223,1.8329 -167.5557,1.8329 -171.1781,0 z"
             id="path3931"
             transform="matrix(0.26458333,0,0,0.26458333,-40.415447,-17.230623)" /></g></g></g></g></svg>
