<?xml version="1.0" encoding="UTF-8" standalone="no"?>
<!-- Created with Inkscape (http://www.inkscape.org/) -->

<svg
   width="239.32692mm"
   height="19.455307mm"
   viewBox="0 0 239.32692 19.455307"
   version="1.1"
   id="svg5112"
   inkscape:version="1.2.1 (9c6d41e410, 2022-07-14)"
   sodipodi:docname="Pestanha_facebook.svg"
   xml:space="preserve"
   xmlns:inkscape="http://www.inkscape.org/namespaces/inkscape"
   xmlns:sodipodi="http://sodipodi.sourceforge.net/DTD/sodipodi-0.dtd"
   xmlns:xlink="http://www.w3.org/1999/xlink"
   xmlns="http://www.w3.org/2000/svg"
   xmlns:svg="http://www.w3.org/2000/svg"><sodipodi:namedview
     id="namedview5114"
     pagecolor="#ffffff"
     bordercolor="#000000"
     borderopacity="0.25"
     inkscape:showpageshadow="2"
     inkscape:pageopacity="0.0"
     inkscape:pagecheckerboard="0"
     inkscape:deskcolor="#d1d1d1"
     inkscape:document-units="mm"
     showgrid="false"
     inkscape:zoom="0.70199214"
     inkscape:cx="685.90512"
     inkscape:cy="223.64923"
     inkscape:window-width="1920"
     inkscape:window-height="986"
     inkscape:window-x="-11"
     inkscape:window-y="-11"
     inkscape:window-maximized="1"
     inkscape:current-layer="layer1" /><defs
     id="defs5109"><linearGradient
       inkscape:collect="always"
       id="linearGradient2642"><stop
         style="stop-color:#000000;stop-opacity:0.13765182;"
         offset="0"
         id="stop2638" /><stop
         style="stop-color:#000000;stop-opacity:0;"
         offset="1"
         id="stop2640" /></linearGradient><linearGradient
       inkscape:collect="always"
       xlink:href="#linearGradient2642"
       id="linearGradient2644"
       x1="-40.415447"
       y1="-7.5029697"
       x2="198.91147"
       y2="-7.5029697"
       gradientUnits="userSpaceOnUse" /></defs><g
     inkscape:label="Capa 1"
     inkscape:groupmode="layer"
     id="layer1"
     transform="translate(40.415447,17.230623)"><g
       id="g1710"><rect
         style="fill:url(#linearGradient2644);fill-opacity:1;stroke-width:0.641083;stroke-linecap:round"
         id="rect622"
         width="239.32692"
         height="19.455307"
         x="-40.415447"
         y="-17.230623" /><text
         xml:space="preserve"
         style="font-size:11.9503px;font-family:'Kristen ITC';-inkscape-font-specification:'Kristen ITC';fill:#ffffff;fill-opacity:1;stroke:none;stroke-width:2.83419;stroke-linecap:round"
         x="9.1297417"
         y="-2.5529876"
         id="text4821"
         transform="scale(0.95821786,1.043604)"><tspan
           sodipodi:role="line"
           id="tspan4819"
           style="font-style:normal;font-variant:normal;font-weight:normal;font-stretch:normal;font-family:Impact;-inkscape-font-specification:Impact;fill:#ffffff;stroke-width:2.83419"
           x="9.1297417"
           y="-2.5529876">CONTENIDO DE FACEBOOK</tspan></text><g
         id="g1596"
         transform="translate(-6.2547724,-0.02767427)"><circle
           style="fill:#014fbb;fill-opacity:1;stroke-width:0.321403;stroke-linecap:round"
           id="path461"
           cx="-8.8444262"
           cy="-7.4750876"
           r="6.7244396" /><path
           style="fill:#ffffff;stroke-width:0.0219998;stroke-linecap:round"
           d="m -9.7502405,-5.3709692 v -1.8533144 h -0.4668045 -0.466805 v -0.6676922 -0.6676929 h 0.465767 0.4657674 l 0.00561,-0.6895329 c 0.00508,-0.6247634 0.00786,-0.7012565 0.029517,-0.8143354 0.1447248,-0.755567 0.6597597,-1.225985 1.4631179,-1.336368 0.1250935,-0.01719 0.2143602,-0.01925 0.5446058,-0.01257 0.3594838,0.0073 0.6761642,0.02799 0.6927909,0.04534 0.00739,0.0077 -0.014304,1.081027 -0.023872,1.181303 l -0.00619,0.0649 -0.5109025,0.0038 c -0.5070967,0.0037 -0.5114324,0.004 -0.582113,0.03365 -0.095663,0.04015 -0.1786625,0.1225335 -0.2092124,0.207669 -0.040101,0.1117544 -0.048734,0.2525522 -0.048734,0.7948103 v 0.5213761 h 0.6942226 0.6942223 l 2.125e-4,0.053041 c 3.499e-4,0.089673 -0.048987,1.1986408 -0.055252,1.2417833 l -0.00589,0.040561 h -0.6637627 -0.663756 v 1.8533126 1.8533145 h -0.6762682 -0.6762678 v -1.8533145 z"
           id="path405" /></g></g></g></svg>
